<svg width="2102" height="586" viewBox="0 0 2102 586" fill="none" xmlns="http://www.w3.org/2000/svg">
<g opacity="0.3">
<mask id="path-1-outside-1_18_38" maskUnits="userSpaceOnUse" x="208.014" y="68.6461" width="1822" height="448" fill="black">
<rect fill="white" x="208.014" y="68.6461" width="1822" height="448"/>
<path d="M218.014 79.6461L2020 179.701V427.599L218.014 505.752L218.014 282.245V79.6461Z"/>
</mask>
<path d="M218.014 79.6461L2020 179.701V427.599L218.014 505.752L218.014 282.245V79.6461Z" fill="url(#paint0_linear_18_38)"/>
<path d="M218.014 79.6461L218.568 69.6615L208.014 69.0755V79.6461H218.014ZM2020 179.701H2030V170.241L2020.55 169.717L2020 179.701ZM2020 427.599L2020.43 437.59L2030 437.175V427.599H2020ZM218.014 505.752L208.014 505.752L208.014 516.195L218.447 515.743L218.014 505.752ZM218.014 282.245L228.014 282.245V282.245H218.014ZM217.459 89.6307L2019.45 189.686L2020.55 169.717L218.568 69.6615L217.459 89.6307ZM2010 179.701V427.599H2030V179.701H2010ZM2019.57 417.609L217.58 495.761L218.447 515.743L2020.43 437.59L2019.57 417.609ZM228.014 505.752L228.014 282.245L208.014 282.245L208.014 505.752L228.014 505.752ZM228.014 282.245V79.6461H208.014V282.245H228.014Z" fill="black" fill-opacity="0.5" mask="url(#path-1-outside-1_18_38)"/>
</g>
<path d="M0.978271 259.732V328.258L54.4625 346.644V360.683L40.0886 378.066L57.1367 407.816H71.5105L81.2045 417.51L48.7798 464.643L99.924 517.793L151.737 492.388L179.816 506.762L173.465 528.155L208.564 545.538L224.943 528.155L248.343 534.506L262.382 585.316H340.269L351.3 534.506L379.379 528.155L398.433 545.538L430.857 528.155L426.512 506.762L449.911 490.048L503.395 517.793L552.2 463.306L519.775 416.841L528.132 405.81H546.851L562.896 373.386L543.843 358.343V346.978L597.327 328.258V259.063L543.843 243.687V233.324L560.557 211.931L550.528 187.194L528.132 189.534L519.441 173.155L550.528 125.019L501.39 70.8664L450.914 96.6056L424.172 79.2233L427.18 61.1724L396.093 45.4615L380.382 58.8325L351.968 51.4784L337.594 0H264.722L247.674 51.4784L221.601 58.8325L206.892 45.4615L180.485 61.1724V76.5491L151.403 96.6056L101.595 71.535L49.4483 125.353L80.8703 173.155L72.5134 189.2H51.454L43.0971 212.265L58.4738 231.653L56.4681 244.69L0.978271 259.732Z" fill="#171D24"/>
<path d="M0.978271 259.732V328.258L54.4625 346.644V360.683L40.0886 378.066L57.1367 407.816H71.5105L81.2045 417.51L48.7798 464.643L99.924 517.793L151.737 492.388L179.816 506.762L173.465 528.155L208.564 545.538L224.943 528.155L248.343 534.506L262.382 585.316H340.269L351.3 534.506L379.379 528.155L398.433 545.538L430.857 528.155L426.512 506.762L449.911 490.048L503.395 517.793L552.2 463.306L519.775 416.841L528.132 405.81H546.851L562.896 373.386L543.843 358.343V346.978L597.327 328.258V259.063L543.843 243.687V233.324L560.557 211.931L550.528 187.194L528.132 189.534L519.441 173.155L550.528 125.019L501.39 70.8664L450.914 96.6056L424.172 79.2233L427.18 61.1724L396.093 45.4615L380.382 58.8325L351.968 51.4784L337.594 0H264.722L247.674 51.4784L221.601 58.8325L206.892 45.4615L180.485 61.1724V76.5491L151.403 96.6056L101.595 71.535L49.4483 125.353L80.8703 173.155L72.5134 189.2H51.454L43.0971 212.265L58.4738 231.653L56.4681 244.69L0.978271 259.732Z" stroke="url(#paint1_linear_18_38)"/>
<path d="M66.4982 259.397L20.368 274.105V316.224L66.4982 330.598C75.4656 359.992 83.9652 379.147 95.1652 404.388C97.1108 408.772 99.1379 413.34 101.263 418.178L70.8438 463.639L103.603 497.736L146.39 469.991C195.127 501.33 221.753 514.857 266.061 520.466L275.087 568.936H324.226L335.591 520.466C376.088 519.239 453.986 469.203 455.262 463.639L495.041 497.736L528.469 458.625L495.041 416.507C511.152 384.193 518.499 365.404 528.469 330.598L576.939 316.224V274.105L528.469 259.397C520.31 227.576 512.297 208.067 500.448 179.217C499.037 175.78 497.571 172.212 496.044 168.474L528.469 130.367L498.384 93.2619L452.588 118.333C409.248 88.6209 385.06 74.3914 333.585 60.8372L322.889 18.0499H275.756L263.053 60.8372C212.095 72.0825 186.225 84.5075 144.05 115.658L103.603 90.5877L70.8438 130.367L98.5888 168.808C80.6657 203.707 74.017 223.576 66.4982 259.397Z" fill="url(#paint2_linear_18_38)"/>
<path d="M66.4982 259.397L20.368 274.105V316.224L66.4982 330.598C75.4656 359.992 83.9652 379.147 95.1652 404.388C97.1108 408.772 99.1379 413.34 101.263 418.178L70.8438 463.639L103.603 497.736L146.39 469.991C195.127 501.33 221.753 514.857 266.061 520.466L275.087 568.936H324.226L335.591 520.466C376.088 519.239 453.986 469.203 455.262 463.639L495.041 497.736L528.469 458.625L495.041 416.507C511.152 384.193 518.499 365.404 528.469 330.598L576.939 316.224V274.105L528.469 259.397C520.31 227.576 512.297 208.067 500.448 179.217C499.037 175.78 497.571 172.212 496.044 168.474L528.469 130.367L498.384 93.2619L452.588 118.333C409.248 88.6209 385.06 74.3914 333.585 60.8372L322.889 18.0499H275.756L263.053 60.8372C212.095 72.0825 186.225 84.5075 144.05 115.658L103.603 90.5877L70.8438 130.367L98.5888 168.808C80.6657 203.707 74.017 223.576 66.4982 259.397Z" stroke="black"/>
<ellipse cx="299.15" cy="293.495" rx="200.566" ry="200.565" fill="url(#paint3_linear_18_38)"/>
<ellipse cx="299.157" cy="292.824" rx="183.852" ry="183.851" fill="url(#paint4_linear_18_38)"/>
<g filter="url(#filter0_d_18_38)">
<path d="M142.711 265.08V312.882H175.804C179.45 328.133 181.058 336.828 189.51 352.326L164.439 376.728L200.206 415.838L224.274 391.436C239.514 404.965 249.38 410.299 270.07 414.501L275.419 448.263H324.892L326.563 417.176C349.713 412.85 360.518 407.844 375.367 393.776L399.101 414.501L431.86 375.391L410.132 350.989C417.495 337.23 421.394 328.949 427.849 312.882L455.594 311.879V266.752L425.174 266.083C421.26 252.593 416.369 242.411 408.126 228.978L427.514 202.905C414.181 188.578 409.834 182.89 396.427 166.469L370.687 184.52C354.984 174.101 345.781 170.854 327.232 166.469L324.223 133.71H273.413L270.405 166.469C255.11 168.198 249.596 171.415 234.637 182.18L201.878 166.135L169.119 202.905L191.515 227.976C181.461 241.14 179.811 248.758 175.804 265.08H142.711Z" fill="#FCFFFE"/>
</g>
<ellipse cx="301.161" cy="291.489" rx="116.997" ry="116.997" fill="url(#paint5_linear_18_38)"/>
<ellipse cx="300.488" cy="291.821" rx="100.952" ry="103.291" fill="url(#paint6_linear_18_38)"/>
<ellipse cx="300.151" cy="291.487" rx="67.858" ry="66.1866" fill="#172021"/>
<ellipse cx="300.486" cy="292.491" rx="48.8043" ry="48.47" fill="#FCFFFE"/>
<ellipse cx="300.161" cy="208.589" rx="11.0311" ry="10.0283" fill="#0F1518"/>
<ellipse cx="300.161" cy="376.395" rx="11.0311" ry="10.0283" fill="#0F1518"/>
<ellipse cx="384.057" cy="294.496" rx="9.35974" ry="9.02542" fill="#0F1518"/>
<ellipse cx="219.596" cy="294.496" rx="9.35974" ry="9.02542" fill="#0F1518"/>
<mask id="path-16-outside-2_18_38" maskUnits="userSpaceOnUse" x="233.374" y="187.416" width="1869" height="249" fill="black">
<rect fill="white" x="233.374" y="187.416" width="1869" height="249"/>
<path fill-rule="evenodd" clip-rule="evenodd" d="M251.374 209.916V371.916H286.024V305.316H291.26L342.724 371.916H389.524L329.884 305.133C339.081 304.566 347.261 302.677 354.424 299.466C363.124 295.416 369.874 289.866 374.674 282.816C379.474 275.616 381.874 267.291 381.874 257.841C381.874 248.241 379.474 239.841 374.674 232.641C369.874 225.441 363.124 219.891 354.424 215.991C345.724 211.941 335.524 209.916 323.824 209.916H251.374ZM286.024 279.891H322.924C331.174 279.891 337.474 278.016 341.824 274.266C346.324 270.366 348.574 264.966 348.574 258.066C348.574 251.016 346.399 245.691 342.049 242.091C337.699 238.341 331.324 236.466 322.924 236.466H286.024V279.891ZM468.645 361.341C469.095 365.091 469.77 368.616 470.67 371.916H504.42C503.22 367.566 502.32 363.516 501.72 359.766C501.27 355.866 501.045 352.041 501.045 348.291V297.666C501.045 283.866 496.695 273.291 487.995 265.941C479.295 258.591 466.695 254.916 450.195 254.916C434.295 254.916 421.77 258.291 412.62 265.041C403.47 271.791 398.145 280.341 396.645 290.691H428.82C429.87 286.941 432.045 284.091 435.345 282.141C438.795 280.191 443.37 279.216 449.07 279.216C455.07 279.216 459.57 280.566 462.57 283.266C465.72 285.816 467.295 289.416 467.295 294.066V299.97L438.945 303.966C424.545 305.916 413.295 310.191 405.195 316.791C397.245 323.241 393.27 331.791 393.27 342.441C393.27 352.041 396.645 359.766 403.395 365.616C410.145 371.316 419.22 374.166 430.62 374.166C440.37 374.166 448.62 371.991 455.37 367.641C460.764 364.164 465.057 359.347 468.248 353.188C468.316 356.164 468.448 358.881 468.645 361.341ZM467.295 330.291V319.609L444.57 323.091C438.57 323.991 434.145 325.641 431.295 328.041C428.445 330.441 427.02 333.741 427.02 337.941C427.02 341.691 428.37 344.541 431.07 346.491C433.77 348.441 437.37 349.416 441.87 349.416C448.92 349.416 454.92 347.541 459.87 343.791C464.82 339.891 467.295 335.391 467.295 330.291ZM605.573 354.116V371.916H638.648V209.916H604.898V274.5C602.814 269.771 599.589 265.793 595.223 262.566C588.473 257.466 579.623 254.916 568.673 254.916C558.173 254.916 548.948 257.391 540.998 262.341C533.198 267.291 527.123 274.266 522.773 283.266C518.423 292.266 516.248 302.841 516.248 314.991C516.248 326.991 518.348 337.416 522.548 346.266C526.748 355.116 532.673 362.016 540.323 366.966C548.123 371.766 557.273 374.166 567.773 374.166C578.123 374.166 586.973 371.691 594.323 366.741C599.505 363.321 603.255 359.112 605.573 354.116ZM597.923 338.841C592.973 344.391 586.523 347.166 578.573 347.166C570.473 347.166 563.873 344.391 558.773 338.841C553.823 333.291 551.348 325.266 551.348 314.766C551.348 304.266 553.823 296.166 558.773 290.466C563.873 284.766 570.323 281.916 578.123 281.916C586.223 281.916 592.748 284.766 597.698 290.466C602.798 296.016 605.348 304.041 605.348 314.541C605.348 325.041 602.873 333.141 597.923 338.841ZM665.632 209.916V371.916H699.382V310.266C699.382 304.566 700.507 299.616 702.757 295.416C705.157 291.216 708.382 287.916 712.432 285.516C716.632 283.116 721.357 281.916 726.607 281.916C732.757 281.916 737.407 283.491 740.557 286.641C743.857 289.791 745.507 294.516 745.507 300.816V371.916H779.257V294.291C779.257 282.291 775.882 272.766 769.132 265.716C762.382 258.516 752.632 254.916 739.882 254.916C729.232 254.916 720.232 257.466 712.882 262.566C707.372 266.354 702.872 271.153 699.382 276.962V209.916H665.632ZM825.639 366.741C835.089 371.691 846.189 374.166 858.939 374.166C873.189 374.166 884.814 371.016 893.814 364.716C902.964 358.266 909.414 349.491 913.164 338.391H881.439C879.489 342.441 876.564 345.366 872.664 347.166C868.764 348.966 864.114 349.866 858.714 349.866C848.964 349.866 841.614 347.016 836.664 341.316C833.26 337.274 831.063 331.724 830.073 324.666H915.189C915.489 322.866 915.714 320.991 915.864 319.041C916.014 316.941 916.089 314.691 916.089 312.291C916.089 300.741 913.689 290.691 908.889 282.141C904.089 273.591 897.339 266.916 888.639 262.116C879.939 257.316 869.664 254.916 857.814 254.916C845.514 254.916 834.714 257.466 825.414 262.566C816.114 267.516 808.839 274.491 803.589 283.491C798.489 292.341 795.939 302.691 795.939 314.541C795.939 326.241 798.489 336.591 803.589 345.591C808.839 354.591 816.189 361.641 825.639 366.741ZM830.589 302.391C831.736 296.569 833.761 291.844 836.664 288.216C841.614 282.216 848.514 279.216 857.364 279.216C865.014 279.216 871.014 281.466 875.364 285.966C879.183 289.658 881.382 295.133 881.959 302.391H830.589ZM974.735 209.916V371.916H990.935H1009.38H1095.33V345.366H1009.38V302.166H1087.46V276.066H1009.38V236.466H1092.63V209.916H1009.38H990.935H974.735ZM1150.9 257.166H1117.83V371.916H1151.58V310.266C1151.58 304.566 1152.7 299.616 1154.95 295.416C1157.35 291.216 1160.58 287.916 1164.63 285.516C1168.83 283.116 1173.55 281.916 1178.8 281.916C1184.95 281.916 1189.6 283.491 1192.75 286.641C1196.05 289.791 1197.7 294.516 1197.7 300.816V371.916H1231.45V294.291C1231.45 282.291 1228.08 272.766 1221.33 265.716C1214.58 258.516 1204.83 254.916 1192.08 254.916C1181.43 254.916 1172.43 257.466 1165.08 262.566C1159.21 266.603 1154.48 271.788 1150.9 278.121V257.166ZM1273.9 363.816C1281.1 370.866 1292.05 374.391 1306.75 374.391C1311.1 374.391 1315 374.091 1318.45 373.491C1322.05 372.891 1324.83 372.066 1326.78 371.016V345.366C1324.83 345.966 1322.88 346.491 1320.93 346.941C1318.98 347.391 1316.88 347.616 1314.63 347.616C1308.63 347.616 1304.2 346.341 1301.35 343.791C1298.5 341.241 1297.08 337.416 1297.08 332.316V282.816H1326.78V257.166H1297.08V218.916L1263.33 231.516V257.166H1241.95V282.816H1263.33V331.191C1263.33 345.741 1266.85 356.616 1273.9 363.816ZM1363.75 366.741C1373.2 371.691 1384.3 374.166 1397.05 374.166C1411.3 374.166 1422.92 371.016 1431.92 364.716C1441.07 358.266 1447.52 349.491 1451.27 338.391H1419.55C1417.6 342.441 1414.67 345.366 1410.77 347.166C1406.87 348.966 1402.22 349.866 1396.82 349.866C1387.07 349.866 1379.72 347.016 1374.77 341.316C1371.37 337.274 1369.17 331.724 1368.18 324.666H1453.3C1453.6 322.866 1453.82 320.991 1453.97 319.041C1454.12 316.941 1454.2 314.691 1454.2 312.291C1454.2 300.741 1451.8 290.691 1447 282.141C1442.2 273.591 1435.45 266.916 1426.75 262.116C1418.05 257.316 1407.77 254.916 1395.92 254.916C1383.62 254.916 1372.82 257.466 1363.52 262.566C1354.22 267.516 1346.95 274.491 1341.7 283.491C1336.6 292.341 1334.05 302.691 1334.05 314.541C1334.05 326.241 1336.6 336.591 1341.7 345.591C1346.95 354.591 1354.3 361.641 1363.75 366.741ZM1368.7 302.391C1369.85 296.569 1371.87 291.844 1374.77 288.216C1379.72 282.216 1386.62 279.216 1395.47 279.216C1403.12 279.216 1409.12 281.466 1413.47 285.966C1417.29 289.658 1419.49 295.133 1420.07 302.391H1368.7ZM1505.32 257.166H1472.25V371.916H1506V312.066C1506 302.766 1508.55 296.241 1513.65 292.491C1518.75 288.591 1526.7 286.641 1537.5 286.641C1539.45 286.641 1541.1 286.716 1542.45 286.866C1543.8 286.866 1544.85 287.016 1545.6 287.316V255.816C1544.25 255.216 1542.15 254.916 1539.3 254.916C1530.15 254.916 1522.5 257.466 1516.35 262.566C1511.68 266.438 1508 271.651 1505.32 278.203V257.166ZM1605.55 366.516C1612.15 371.616 1620.92 374.166 1631.87 374.166C1642.52 374.166 1651.75 371.691 1659.55 366.741C1667.35 361.791 1673.42 354.816 1677.77 345.816C1682.12 336.816 1684.3 326.241 1684.3 314.091C1684.3 302.091 1682.2 291.666 1678 282.816C1673.95 273.966 1668.1 267.141 1660.45 262.341C1652.95 257.391 1644.02 254.916 1633.67 254.916C1622.87 254.916 1613.8 257.391 1606.45 262.341C1601.13 265.812 1597.31 270.225 1594.97 275.58V257.166H1561.9V418.041H1595.65V353.025C1597.62 358.443 1600.92 362.94 1605.55 366.516ZM1641.77 338.616C1636.82 344.316 1630.37 347.166 1622.42 347.166C1614.32 347.166 1607.72 344.391 1602.62 338.841C1597.67 333.141 1595.2 325.041 1595.2 314.541C1595.2 304.041 1597.67 296.016 1602.62 290.466C1607.72 284.766 1614.17 281.916 1621.97 281.916C1630.07 281.916 1636.6 284.691 1641.55 290.241C1646.65 295.791 1649.2 303.816 1649.2 314.316C1649.2 324.816 1646.72 332.916 1641.77 338.616ZM1736.26 257.166H1703.18V371.916H1736.93V312.066C1736.93 302.766 1739.48 296.241 1744.58 292.491C1749.68 288.591 1757.63 286.641 1768.43 286.641C1770.38 286.641 1772.03 286.716 1773.38 286.866C1774.73 286.866 1775.78 287.016 1776.53 287.316V255.816C1775.18 255.216 1773.08 254.916 1770.23 254.916C1761.08 254.916 1753.43 257.466 1747.28 262.566C1742.61 266.438 1738.94 271.651 1736.26 278.203V257.166ZM1824.82 257.166H1791.07V371.916H1824.82V257.166ZM1789.95 205.416V241.866H1825.95V205.416H1789.95ZM1857.36 364.041C1867.26 370.791 1880.61 374.166 1897.41 374.166C1913.46 374.166 1925.83 371.091 1934.53 364.941C1943.38 358.641 1947.81 349.866 1947.81 338.616C1947.81 329.766 1944.81 322.116 1938.81 315.666C1932.96 309.066 1924.26 304.566 1912.71 302.166L1892.01 297.891C1886.46 296.691 1882.48 295.341 1880.08 293.841C1877.68 292.191 1876.48 290.016 1876.48 287.316C1876.48 284.166 1877.91 281.766 1880.76 280.116C1883.76 278.316 1888.26 277.416 1894.26 277.416C1900.86 277.416 1905.96 278.466 1909.56 280.566C1913.16 282.516 1915.26 285.441 1915.86 289.341H1946.01C1945.11 278.541 1940.16 270.141 1931.16 264.141C1922.16 257.991 1910.08 254.916 1894.93 254.916C1879.63 254.916 1867.71 258.066 1859.16 264.366C1850.61 270.516 1846.33 279.141 1846.33 290.241C1846.33 299.391 1849.56 306.891 1856.01 312.741C1862.46 318.441 1872.51 322.716 1886.16 325.566L1904.61 329.391C1909.56 330.441 1912.93 331.791 1914.73 333.441C1916.68 334.941 1917.66 337.116 1917.66 339.966C1917.66 343.716 1916.01 346.641 1912.71 348.741C1909.56 350.691 1904.46 351.666 1897.41 351.666C1889.61 351.666 1883.46 350.391 1878.96 347.841C1874.61 345.141 1872.06 341.241 1871.31 336.141H1841.16C1842.06 347.991 1847.46 357.291 1857.36 364.041ZM1989.09 366.741C1998.54 371.691 2009.64 374.166 2022.39 374.166C2036.64 374.166 2048.27 371.016 2057.27 364.716C2066.42 358.266 2072.87 349.491 2076.62 338.391H2044.89C2042.94 342.441 2040.02 345.366 2036.12 347.166C2032.22 348.966 2027.57 349.866 2022.17 349.866C2012.42 349.866 2005.07 347.016 2000.12 341.316C1996.71 337.274 1994.52 331.724 1993.53 324.666H2078.64C2078.94 322.866 2079.17 320.991 2079.32 319.041C2079.47 316.941 2079.54 314.691 2079.54 312.291C2079.54 300.741 2077.14 290.691 2072.34 282.141C2067.54 273.591 2060.79 266.916 2052.09 262.116C2043.39 257.316 2033.12 254.916 2021.27 254.916C2008.97 254.916 1998.17 257.466 1988.87 262.566C1979.57 267.516 1972.29 274.491 1967.04 283.491C1961.94 292.341 1959.39 302.691 1959.39 314.541C1959.39 326.241 1961.94 336.591 1967.04 345.591C1972.29 354.591 1979.64 361.641 1989.09 366.741ZM1994.04 302.391C1995.19 296.569 1997.21 291.844 2000.12 288.216C2005.07 282.216 2011.97 279.216 2020.82 279.216C2028.47 279.216 2034.47 281.466 2038.82 285.966C2042.64 289.658 2044.83 295.133 2045.41 302.391H1994.04Z"/>
</mask>
<path fill-rule="evenodd" clip-rule="evenodd" d="M251.374 209.916V371.916H286.024V305.316H291.26L342.724 371.916H389.524L329.884 305.133C339.081 304.566 347.261 302.677 354.424 299.466C363.124 295.416 369.874 289.866 374.674 282.816C379.474 275.616 381.874 267.291 381.874 257.841C381.874 248.241 379.474 239.841 374.674 232.641C369.874 225.441 363.124 219.891 354.424 215.991C345.724 211.941 335.524 209.916 323.824 209.916H251.374ZM286.024 279.891H322.924C331.174 279.891 337.474 278.016 341.824 274.266C346.324 270.366 348.574 264.966 348.574 258.066C348.574 251.016 346.399 245.691 342.049 242.091C337.699 238.341 331.324 236.466 322.924 236.466H286.024V279.891ZM468.645 361.341C469.095 365.091 469.77 368.616 470.67 371.916H504.42C503.22 367.566 502.32 363.516 501.72 359.766C501.27 355.866 501.045 352.041 501.045 348.291V297.666C501.045 283.866 496.695 273.291 487.995 265.941C479.295 258.591 466.695 254.916 450.195 254.916C434.295 254.916 421.77 258.291 412.62 265.041C403.47 271.791 398.145 280.341 396.645 290.691H428.82C429.87 286.941 432.045 284.091 435.345 282.141C438.795 280.191 443.37 279.216 449.07 279.216C455.07 279.216 459.57 280.566 462.57 283.266C465.72 285.816 467.295 289.416 467.295 294.066V299.97L438.945 303.966C424.545 305.916 413.295 310.191 405.195 316.791C397.245 323.241 393.27 331.791 393.27 342.441C393.27 352.041 396.645 359.766 403.395 365.616C410.145 371.316 419.22 374.166 430.62 374.166C440.37 374.166 448.62 371.991 455.37 367.641C460.764 364.164 465.057 359.347 468.248 353.188C468.316 356.164 468.448 358.881 468.645 361.341ZM467.295 330.291V319.609L444.57 323.091C438.57 323.991 434.145 325.641 431.295 328.041C428.445 330.441 427.02 333.741 427.02 337.941C427.02 341.691 428.37 344.541 431.07 346.491C433.77 348.441 437.37 349.416 441.87 349.416C448.92 349.416 454.92 347.541 459.87 343.791C464.82 339.891 467.295 335.391 467.295 330.291ZM605.573 354.116V371.916H638.648V209.916H604.898V274.5C602.814 269.771 599.589 265.793 595.223 262.566C588.473 257.466 579.623 254.916 568.673 254.916C558.173 254.916 548.948 257.391 540.998 262.341C533.198 267.291 527.123 274.266 522.773 283.266C518.423 292.266 516.248 302.841 516.248 314.991C516.248 326.991 518.348 337.416 522.548 346.266C526.748 355.116 532.673 362.016 540.323 366.966C548.123 371.766 557.273 374.166 567.773 374.166C578.123 374.166 586.973 371.691 594.323 366.741C599.505 363.321 603.255 359.112 605.573 354.116ZM597.923 338.841C592.973 344.391 586.523 347.166 578.573 347.166C570.473 347.166 563.873 344.391 558.773 338.841C553.823 333.291 551.348 325.266 551.348 314.766C551.348 304.266 553.823 296.166 558.773 290.466C563.873 284.766 570.323 281.916 578.123 281.916C586.223 281.916 592.748 284.766 597.698 290.466C602.798 296.016 605.348 304.041 605.348 314.541C605.348 325.041 602.873 333.141 597.923 338.841ZM665.632 209.916V371.916H699.382V310.266C699.382 304.566 700.507 299.616 702.757 295.416C705.157 291.216 708.382 287.916 712.432 285.516C716.632 283.116 721.357 281.916 726.607 281.916C732.757 281.916 737.407 283.491 740.557 286.641C743.857 289.791 745.507 294.516 745.507 300.816V371.916H779.257V294.291C779.257 282.291 775.882 272.766 769.132 265.716C762.382 258.516 752.632 254.916 739.882 254.916C729.232 254.916 720.232 257.466 712.882 262.566C707.372 266.354 702.872 271.153 699.382 276.962V209.916H665.632ZM825.639 366.741C835.089 371.691 846.189 374.166 858.939 374.166C873.189 374.166 884.814 371.016 893.814 364.716C902.964 358.266 909.414 349.491 913.164 338.391H881.439C879.489 342.441 876.564 345.366 872.664 347.166C868.764 348.966 864.114 349.866 858.714 349.866C848.964 349.866 841.614 347.016 836.664 341.316C833.26 337.274 831.063 331.724 830.073 324.666H915.189C915.489 322.866 915.714 320.991 915.864 319.041C916.014 316.941 916.089 314.691 916.089 312.291C916.089 300.741 913.689 290.691 908.889 282.141C904.089 273.591 897.339 266.916 888.639 262.116C879.939 257.316 869.664 254.916 857.814 254.916C845.514 254.916 834.714 257.466 825.414 262.566C816.114 267.516 808.839 274.491 803.589 283.491C798.489 292.341 795.939 302.691 795.939 314.541C795.939 326.241 798.489 336.591 803.589 345.591C808.839 354.591 816.189 361.641 825.639 366.741ZM830.589 302.391C831.736 296.569 833.761 291.844 836.664 288.216C841.614 282.216 848.514 279.216 857.364 279.216C865.014 279.216 871.014 281.466 875.364 285.966C879.183 289.658 881.382 295.133 881.959 302.391H830.589ZM974.735 209.916V371.916H990.935H1009.38H1095.33V345.366H1009.38V302.166H1087.46V276.066H1009.38V236.466H1092.63V209.916H1009.38H990.935H974.735ZM1150.9 257.166H1117.83V371.916H1151.58V310.266C1151.58 304.566 1152.7 299.616 1154.95 295.416C1157.35 291.216 1160.58 287.916 1164.63 285.516C1168.83 283.116 1173.55 281.916 1178.8 281.916C1184.95 281.916 1189.6 283.491 1192.75 286.641C1196.05 289.791 1197.7 294.516 1197.7 300.816V371.916H1231.45V294.291C1231.45 282.291 1228.08 272.766 1221.33 265.716C1214.58 258.516 1204.83 254.916 1192.08 254.916C1181.43 254.916 1172.43 257.466 1165.08 262.566C1159.21 266.603 1154.48 271.788 1150.9 278.121V257.166ZM1273.9 363.816C1281.1 370.866 1292.05 374.391 1306.75 374.391C1311.1 374.391 1315 374.091 1318.45 373.491C1322.05 372.891 1324.83 372.066 1326.78 371.016V345.366C1324.83 345.966 1322.88 346.491 1320.93 346.941C1318.98 347.391 1316.88 347.616 1314.63 347.616C1308.63 347.616 1304.2 346.341 1301.35 343.791C1298.5 341.241 1297.08 337.416 1297.08 332.316V282.816H1326.78V257.166H1297.08V218.916L1263.33 231.516V257.166H1241.95V282.816H1263.33V331.191C1263.33 345.741 1266.85 356.616 1273.9 363.816ZM1363.75 366.741C1373.2 371.691 1384.3 374.166 1397.05 374.166C1411.3 374.166 1422.92 371.016 1431.92 364.716C1441.07 358.266 1447.52 349.491 1451.27 338.391H1419.55C1417.6 342.441 1414.67 345.366 1410.77 347.166C1406.87 348.966 1402.22 349.866 1396.82 349.866C1387.07 349.866 1379.72 347.016 1374.77 341.316C1371.37 337.274 1369.17 331.724 1368.18 324.666H1453.3C1453.6 322.866 1453.82 320.991 1453.97 319.041C1454.12 316.941 1454.2 314.691 1454.2 312.291C1454.2 300.741 1451.8 290.691 1447 282.141C1442.2 273.591 1435.45 266.916 1426.75 262.116C1418.05 257.316 1407.77 254.916 1395.92 254.916C1383.62 254.916 1372.82 257.466 1363.52 262.566C1354.22 267.516 1346.95 274.491 1341.7 283.491C1336.6 292.341 1334.05 302.691 1334.05 314.541C1334.05 326.241 1336.6 336.591 1341.7 345.591C1346.95 354.591 1354.3 361.641 1363.75 366.741ZM1368.7 302.391C1369.85 296.569 1371.87 291.844 1374.77 288.216C1379.72 282.216 1386.62 279.216 1395.47 279.216C1403.12 279.216 1409.12 281.466 1413.47 285.966C1417.29 289.658 1419.49 295.133 1420.07 302.391H1368.7ZM1505.32 257.166H1472.25V371.916H1506V312.066C1506 302.766 1508.55 296.241 1513.65 292.491C1518.75 288.591 1526.7 286.641 1537.5 286.641C1539.45 286.641 1541.1 286.716 1542.45 286.866C1543.8 286.866 1544.85 287.016 1545.6 287.316V255.816C1544.25 255.216 1542.15 254.916 1539.3 254.916C1530.15 254.916 1522.5 257.466 1516.35 262.566C1511.68 266.438 1508 271.651 1505.32 278.203V257.166ZM1605.55 366.516C1612.15 371.616 1620.92 374.166 1631.87 374.166C1642.52 374.166 1651.75 371.691 1659.55 366.741C1667.35 361.791 1673.42 354.816 1677.77 345.816C1682.12 336.816 1684.3 326.241 1684.3 314.091C1684.3 302.091 1682.2 291.666 1678 282.816C1673.95 273.966 1668.1 267.141 1660.45 262.341C1652.95 257.391 1644.02 254.916 1633.67 254.916C1622.87 254.916 1613.8 257.391 1606.45 262.341C1601.13 265.812 1597.31 270.225 1594.97 275.58V257.166H1561.9V418.041H1595.65V353.025C1597.62 358.443 1600.92 362.94 1605.55 366.516ZM1641.77 338.616C1636.82 344.316 1630.37 347.166 1622.42 347.166C1614.32 347.166 1607.72 344.391 1602.62 338.841C1597.67 333.141 1595.2 325.041 1595.2 314.541C1595.2 304.041 1597.67 296.016 1602.62 290.466C1607.72 284.766 1614.17 281.916 1621.97 281.916C1630.07 281.916 1636.6 284.691 1641.55 290.241C1646.65 295.791 1649.2 303.816 1649.2 314.316C1649.2 324.816 1646.72 332.916 1641.77 338.616ZM1736.26 257.166H1703.18V371.916H1736.93V312.066C1736.93 302.766 1739.48 296.241 1744.58 292.491C1749.68 288.591 1757.63 286.641 1768.43 286.641C1770.38 286.641 1772.03 286.716 1773.38 286.866C1774.73 286.866 1775.78 287.016 1776.53 287.316V255.816C1775.18 255.216 1773.08 254.916 1770.23 254.916C1761.08 254.916 1753.43 257.466 1747.28 262.566C1742.61 266.438 1738.94 271.651 1736.26 278.203V257.166ZM1824.82 257.166H1791.07V371.916H1824.82V257.166ZM1789.95 205.416V241.866H1825.95V205.416H1789.95ZM1857.36 364.041C1867.26 370.791 1880.61 374.166 1897.41 374.166C1913.46 374.166 1925.83 371.091 1934.53 364.941C1943.38 358.641 1947.81 349.866 1947.81 338.616C1947.81 329.766 1944.81 322.116 1938.81 315.666C1932.96 309.066 1924.26 304.566 1912.71 302.166L1892.01 297.891C1886.46 296.691 1882.48 295.341 1880.08 293.841C1877.68 292.191 1876.48 290.016 1876.48 287.316C1876.48 284.166 1877.91 281.766 1880.76 280.116C1883.76 278.316 1888.26 277.416 1894.26 277.416C1900.86 277.416 1905.96 278.466 1909.56 280.566C1913.16 282.516 1915.26 285.441 1915.86 289.341H1946.01C1945.11 278.541 1940.16 270.141 1931.16 264.141C1922.16 257.991 1910.08 254.916 1894.93 254.916C1879.63 254.916 1867.71 258.066 1859.16 264.366C1850.61 270.516 1846.33 279.141 1846.33 290.241C1846.33 299.391 1849.56 306.891 1856.01 312.741C1862.46 318.441 1872.51 322.716 1886.16 325.566L1904.61 329.391C1909.56 330.441 1912.93 331.791 1914.73 333.441C1916.68 334.941 1917.66 337.116 1917.66 339.966C1917.66 343.716 1916.01 346.641 1912.71 348.741C1909.56 350.691 1904.46 351.666 1897.41 351.666C1889.61 351.666 1883.46 350.391 1878.96 347.841C1874.61 345.141 1872.06 341.241 1871.31 336.141H1841.16C1842.06 347.991 1847.46 357.291 1857.36 364.041ZM1989.09 366.741C1998.54 371.691 2009.64 374.166 2022.39 374.166C2036.64 374.166 2048.27 371.016 2057.27 364.716C2066.42 358.266 2072.87 349.491 2076.62 338.391H2044.89C2042.94 342.441 2040.02 345.366 2036.12 347.166C2032.22 348.966 2027.57 349.866 2022.17 349.866C2012.42 349.866 2005.07 347.016 2000.12 341.316C1996.71 337.274 1994.52 331.724 1993.53 324.666H2078.64C2078.94 322.866 2079.17 320.991 2079.32 319.041C2079.47 316.941 2079.54 314.691 2079.54 312.291C2079.54 300.741 2077.14 290.691 2072.34 282.141C2067.54 273.591 2060.79 266.916 2052.09 262.116C2043.39 257.316 2033.12 254.916 2021.27 254.916C2008.97 254.916 1998.17 257.466 1988.87 262.566C1979.57 267.516 1972.29 274.491 1967.04 283.491C1961.94 292.341 1959.39 302.691 1959.39 314.541C1959.39 326.241 1961.94 336.591 1967.04 345.591C1972.29 354.591 1979.64 361.641 1989.09 366.741ZM1994.04 302.391C1995.19 296.569 1997.21 291.844 2000.12 288.216C2005.07 282.216 2011.97 279.216 2020.82 279.216C2028.47 279.216 2034.47 281.466 2038.82 285.966C2042.64 289.658 2044.83 295.133 2045.41 302.391H1994.04Z" fill="url(#paint7_radial_18_38)"/>
<path d="M251.374 371.916H233.374V389.916H251.374V371.916ZM251.374 209.916V191.916H233.374V209.916H251.374ZM286.024 371.916V389.916H304.024V371.916H286.024ZM286.024 305.316V287.316H268.024V305.316H286.024ZM291.26 305.316L305.503 294.31L300.099 287.316H291.26V305.316ZM342.724 371.916L328.481 382.922L333.885 389.916H342.724V371.916ZM389.524 371.916V389.916H429.732L402.949 359.926L389.524 371.916ZM329.884 305.133L328.776 287.167L291.746 289.451L316.458 317.123L329.884 305.133ZM354.424 299.466L361.787 315.891L361.904 315.839L362.02 315.784L354.424 299.466ZM374.674 282.816L389.553 292.946L389.602 292.874L389.651 292.8L374.674 282.816ZM374.674 232.641L359.697 242.625L359.697 242.626L374.674 232.641ZM354.424 215.991L346.827 232.309L346.944 232.364L347.061 232.416L354.424 215.991ZM286.024 279.891H268.024V297.891H286.024V279.891ZM341.824 274.266L353.577 287.899L353.595 287.884L353.613 287.868L341.824 274.266ZM342.049 242.091L330.296 255.724L330.433 255.843L330.573 255.958L342.049 242.091ZM286.024 236.466V218.466H268.024V236.466H286.024ZM470.67 371.916L453.304 376.652L456.921 389.916H470.67V371.916ZM468.645 361.341L450.702 362.776L450.73 363.132L450.773 363.485L468.645 361.341ZM504.42 371.916V389.916H528.057L521.772 367.129L504.42 371.916ZM501.72 359.766L483.838 361.829L483.883 362.221L483.946 362.61L501.72 359.766ZM487.995 265.941L499.611 252.191L499.611 252.191L487.995 265.941ZM412.62 265.041L401.934 250.556L401.934 250.556L412.62 265.041ZM396.645 290.691L378.831 288.109L375.848 308.691H396.645V290.691ZM428.82 290.691V308.691H442.472L446.153 295.544L428.82 290.691ZM435.345 282.141L426.488 266.471L426.337 266.556L426.188 266.644L435.345 282.141ZM462.57 283.266L450.528 296.645L450.878 296.96L451.244 297.256L462.57 283.266ZM467.295 299.97L469.807 317.794L485.295 315.611V299.97H467.295ZM438.945 303.966L441.36 321.803L441.408 321.797L441.457 321.79L438.945 303.966ZM405.195 316.791L416.535 330.769L416.55 330.757L416.565 330.745L405.195 316.791ZM403.395 365.616L391.606 379.218L391.693 379.294L391.781 379.368L403.395 365.616ZM455.37 367.641L465.12 382.771L465.12 382.771L455.37 367.641ZM468.248 353.188L486.243 352.778L452.266 344.907L468.248 353.188ZM467.295 319.609H485.295V298.641L464.568 301.816L467.295 319.609ZM444.57 323.091L447.24 340.892L447.268 340.888L447.296 340.883L444.57 323.091ZM431.295 328.041L419.7 314.272L419.7 314.273L431.295 328.041ZM431.07 346.491L441.609 331.899L441.608 331.899L431.07 346.491ZM459.87 343.791L470.739 358.139L470.875 358.035L471.009 357.93L459.87 343.791ZM605.573 371.916H587.573V389.916H605.573V371.916ZM605.573 354.116H623.573L589.244 346.542L605.573 354.116ZM638.648 371.916V389.916H656.648V371.916H638.648ZM638.648 209.916H656.648V191.916H638.648V209.916ZM604.898 209.916V191.916H586.898V209.916H604.898ZM604.898 274.5L588.426 281.758L622.898 274.5H604.898ZM595.223 262.566L584.372 276.927L584.448 276.985L584.524 277.041L595.223 262.566ZM540.998 262.341L531.484 247.061L531.418 247.102L531.353 247.143L540.998 262.341ZM522.548 346.266L506.286 353.983L506.286 353.983L522.548 346.266ZM540.323 366.966L530.544 382.078L530.716 382.189L530.889 382.296L540.323 366.966ZM594.323 366.741L584.408 351.718L584.338 351.764L584.268 351.811L594.323 366.741ZM597.923 338.841L611.356 350.822L611.436 350.733L611.514 350.643L597.923 338.841ZM558.773 338.841L545.34 350.822L545.429 350.922L545.519 351.02L558.773 338.841ZM558.773 290.466L545.359 278.464L545.27 278.563L545.182 278.664L558.773 290.466ZM597.698 290.466L584.107 302.268L584.273 302.459L584.444 302.645L597.698 290.466ZM665.632 371.916H647.632V389.916H665.632V371.916ZM665.632 209.916V191.916H647.632V209.916H665.632ZM699.382 371.916V389.916H717.382V371.916H699.382ZM702.757 295.416L687.129 286.485L687.007 286.699L686.891 286.916L702.757 295.416ZM712.432 285.516L703.502 269.888L703.378 269.958L703.256 270.031L712.432 285.516ZM740.557 286.641L727.829 299.369L727.977 299.517L728.129 299.661L740.557 286.641ZM745.507 371.916H727.507V389.916H745.507V371.916ZM779.257 371.916V389.916H797.257V371.916H779.257ZM769.132 265.716L756.001 278.027L756.065 278.096L756.131 278.164L769.132 265.716ZM712.882 262.566L723.08 277.399L723.112 277.377L723.144 277.354L712.882 262.566ZM699.382 276.962H681.382V341.882L714.812 286.231L699.382 276.962ZM699.382 209.916H717.382V191.916H699.382V209.916ZM825.639 366.741L817.09 382.581L817.188 382.634L817.287 382.686L825.639 366.741ZM893.814 364.716L904.136 379.462L904.16 379.445L904.185 379.428L893.814 364.716ZM913.164 338.391L930.217 344.152L938.244 320.391H913.164V338.391ZM881.439 338.391V320.391H870.128L865.221 330.582L881.439 338.391ZM872.664 347.166L880.207 363.509L880.207 363.509L872.664 347.166ZM836.664 341.316L822.895 352.91L822.984 353.015L823.073 353.118L836.664 341.316ZM830.073 324.666V306.666H809.372L812.248 327.167L830.073 324.666ZM915.189 324.666V342.666H930.437L932.944 327.626L915.189 324.666ZM915.864 319.041L933.811 320.422L933.815 320.372L933.818 320.323L915.864 319.041ZM908.889 282.141L893.193 290.952L893.193 290.953L908.889 282.141ZM888.639 262.116L879.943 277.876L879.943 277.876L888.639 262.116ZM825.414 262.566L833.871 278.455L833.97 278.403L834.069 278.349L825.414 262.566ZM803.589 283.491L788.041 274.421L788.017 274.462L787.993 274.504L803.589 283.491ZM803.589 345.591L787.928 354.465L787.984 354.563L788.041 354.661L803.589 345.591ZM836.664 288.216L822.779 276.761L822.693 276.866L822.608 276.971L836.664 288.216ZM830.589 302.391L812.929 298.91L808.695 320.391H830.589V302.391ZM875.364 285.966L862.422 298.476L862.634 298.696L862.853 298.908L875.364 285.966ZM881.959 302.391V320.391H901.449L899.903 300.963L881.959 302.391ZM974.735 371.916H956.735V389.916H974.735V371.916ZM974.735 209.916V191.916H956.735V209.916H974.735ZM1095.33 371.916V389.916H1113.33V371.916H1095.33ZM1095.33 345.366H1113.33V327.366H1095.33V345.366ZM1009.38 345.366H991.385V363.366H1009.38V345.366ZM1009.38 302.166V284.166H991.385V302.166H1009.38ZM1087.46 302.166V320.166H1105.46V302.166H1087.46ZM1087.46 276.066H1105.46V258.066H1087.46V276.066ZM1009.38 276.066H991.385V294.066H1009.38V276.066ZM1009.38 236.466V218.466H991.385V236.466H1009.38ZM1092.63 236.466V254.466H1110.63V236.466H1092.63ZM1092.63 209.916H1110.63V191.916H1092.63V209.916ZM1117.83 257.166V239.166H1099.83V257.166H1117.83ZM1150.9 257.166H1168.9V239.166H1150.9V257.166ZM1117.83 371.916H1099.83V389.916H1117.83V371.916ZM1151.58 371.916V389.916H1169.58V371.916H1151.58ZM1154.95 295.416L1139.33 286.485L1139.2 286.699L1139.09 286.916L1154.95 295.416ZM1164.63 285.516L1155.7 269.888L1155.58 269.958L1155.45 270.031L1164.63 285.516ZM1192.75 286.641L1180.03 299.369L1180.17 299.517L1180.33 299.661L1192.75 286.641ZM1197.7 371.916H1179.7V389.916H1197.7V371.916ZM1231.45 371.916V389.916H1249.45V371.916H1231.45ZM1221.33 265.716L1208.2 278.027L1208.26 278.096L1208.33 278.164L1221.33 265.716ZM1165.08 262.566L1175.28 277.399L1175.31 277.377L1175.34 277.354L1165.08 262.566ZM1150.9 278.121H1132.9V346.579L1166.58 286.974L1150.9 278.121ZM1273.9 363.816L1261.04 376.409L1261.17 376.545L1261.31 376.677L1273.9 363.816ZM1318.45 373.491L1315.49 355.736L1315.43 355.746L1315.37 355.757L1318.45 373.491ZM1326.78 371.016L1335.31 386.864L1344.78 381.767V371.016H1326.78ZM1326.78 345.366H1344.78V320.995L1321.48 328.162L1326.78 345.366ZM1320.93 346.941L1324.97 364.48L1324.97 364.48L1320.93 346.941ZM1301.35 343.791L1289.35 357.205L1289.35 357.205L1301.35 343.791ZM1297.08 282.816V264.816H1279.08V282.816H1297.08ZM1326.78 282.816V300.816H1344.78V282.816H1326.78ZM1326.78 257.166H1344.78V239.166H1326.78V257.166ZM1297.08 257.166H1279.08V275.166H1297.08V257.166ZM1297.08 218.916H1315.08V192.982L1290.78 202.053L1297.08 218.916ZM1263.33 231.516L1257.03 214.653L1245.33 219.022V231.516H1263.33ZM1263.33 257.166V275.166H1281.33V257.166H1263.33ZM1241.95 257.166V239.166H1223.95V257.166H1241.95ZM1241.95 282.816H1223.95V300.816H1241.95V282.816ZM1263.33 282.816H1281.33V264.816H1263.33V282.816ZM1363.75 366.741L1355.2 382.581L1355.3 382.634L1355.4 382.686L1363.75 366.741ZM1431.92 364.716L1442.25 379.462L1442.27 379.445L1442.29 379.428L1431.92 364.716ZM1451.27 338.391L1468.33 344.152L1476.35 320.391H1451.27V338.391ZM1419.55 338.391V320.391H1408.24L1403.33 330.582L1419.55 338.391ZM1410.77 347.166L1418.32 363.509L1418.32 363.509L1410.77 347.166ZM1374.77 341.316L1361.01 352.91L1361.09 353.015L1361.18 353.118L1374.77 341.316ZM1368.18 324.666V306.666H1347.48L1350.36 327.167L1368.18 324.666ZM1453.3 324.666V342.666H1468.55L1471.05 327.626L1453.3 324.666ZM1453.97 319.041L1471.92 320.422L1471.92 320.373L1471.93 320.324L1453.97 319.041ZM1447 282.141L1462.69 273.329L1462.69 273.329L1447 282.141ZM1426.75 262.116L1435.44 246.356L1435.44 246.355L1426.75 262.116ZM1363.52 262.566L1371.98 278.455L1372.08 278.403L1372.18 278.348L1363.52 262.566ZM1341.7 283.491L1326.15 274.421L1326.13 274.462L1326.1 274.504L1341.7 283.491ZM1341.7 345.591L1326.04 354.465L1326.09 354.563L1326.15 354.661L1341.7 345.591ZM1374.77 288.216L1360.89 276.761L1360.8 276.866L1360.72 276.971L1374.77 288.216ZM1368.7 302.391L1351.04 298.91L1346.81 320.391H1368.7V302.391ZM1413.47 285.966L1400.53 298.476L1400.74 298.696L1400.96 298.908L1413.47 285.966ZM1420.07 302.391V320.391H1439.56L1438.01 300.963L1420.07 302.391ZM1472.25 257.166V239.166H1454.25V257.166H1472.25ZM1505.32 257.166H1523.32V239.166H1505.32V257.166ZM1472.25 371.916H1454.25V389.916H1472.25V371.916ZM1506 371.916V389.916H1524V371.916H1506ZM1513.65 292.491L1524.31 306.993L1524.45 306.892L1524.58 306.789L1513.65 292.491ZM1542.45 286.866L1540.46 304.756L1541.45 304.866H1542.45V286.866ZM1545.6 287.316L1538.91 304.028L1563.6 313.903V287.316H1545.6ZM1545.6 255.816H1563.6V244.118L1552.91 239.367L1545.6 255.816ZM1516.35 262.566L1527.84 276.422L1527.84 276.421L1516.35 262.566ZM1505.32 278.203H1487.32L1521.98 285.018L1505.32 278.203ZM1605.55 366.516L1616.55 352.273L1616.55 352.273L1605.55 366.516ZM1659.55 366.741L1649.9 351.543L1649.9 351.543L1659.55 366.741ZM1677.77 345.816L1661.57 337.983L1661.57 337.983L1677.77 345.816ZM1678 282.816L1661.63 290.306L1661.68 290.42L1661.74 290.533L1678 282.816ZM1660.45 262.341L1650.53 277.364L1650.7 277.478L1650.88 277.588L1660.45 262.341ZM1606.45 262.341L1616.29 277.412L1616.4 277.342L1616.5 277.271L1606.45 262.341ZM1594.97 275.58H1576.97L1611.47 282.773L1594.97 275.58ZM1594.97 257.166H1612.97V239.166H1594.97V257.166ZM1561.9 257.166V239.166H1543.9V257.166H1561.9ZM1561.9 418.041H1543.9V436.041H1561.9V418.041ZM1595.65 418.041V436.041H1613.65V418.041H1595.65ZM1595.65 353.025L1612.56 346.867L1577.65 353.025H1595.65ZM1641.77 338.616L1628.18 326.813L1628.18 326.814L1641.77 338.616ZM1602.62 338.841L1589.03 350.643L1589.2 350.834L1589.37 351.02L1602.62 338.841ZM1602.62 290.466L1589.21 278.464L1589.2 278.474L1589.19 278.485L1602.62 290.466ZM1641.55 290.241L1628.11 302.222L1628.2 302.322L1628.29 302.42L1641.55 290.241ZM1703.18 257.166V239.166H1685.18V257.166H1703.18ZM1736.26 257.166H1754.26V239.166H1736.26V257.166ZM1703.18 371.916H1685.18V389.916H1703.18V371.916ZM1736.93 371.916V389.916H1754.93V371.916H1736.93ZM1744.58 292.491L1755.24 306.993L1755.38 306.892L1755.52 306.789L1744.58 292.491ZM1773.38 286.866L1771.39 304.756L1772.38 304.866H1773.38V286.866ZM1776.53 287.316L1769.84 304.028L1794.53 313.904V287.316H1776.53ZM1776.53 255.816H1794.53V244.118L1783.84 239.367L1776.53 255.816ZM1747.28 262.566L1758.77 276.422L1758.77 276.421L1747.28 262.566ZM1736.26 278.203H1718.26L1752.92 285.018L1736.26 278.203ZM1791.07 257.166V239.166H1773.07V257.166H1791.07ZM1824.82 257.166H1842.82V239.166H1824.82V257.166ZM1791.07 371.916H1773.07V389.916H1791.07V371.916ZM1824.82 371.916V389.916H1842.82V371.916H1824.82ZM1789.95 241.866H1771.95V259.866H1789.95V241.866ZM1789.95 205.416V187.416H1771.95V205.416H1789.95ZM1825.95 241.866V259.866H1843.95V241.866H1825.95ZM1825.95 205.416H1843.95V187.416H1825.95V205.416ZM1934.53 364.941L1944.92 379.639L1944.95 379.622L1944.97 379.605L1934.53 364.941ZM1938.81 315.666L1925.34 327.605L1925.48 327.767L1925.63 327.926L1938.81 315.666ZM1912.71 302.166L1916.37 284.542L1916.36 284.54L1916.35 284.538L1912.71 302.166ZM1892.01 297.891L1888.2 315.484L1888.28 315.502L1888.37 315.519L1892.01 297.891ZM1880.08 293.841L1869.88 308.674L1870.21 308.896L1870.54 309.105L1880.08 293.841ZM1880.76 280.116L1889.78 295.694L1889.9 295.623L1890.02 295.551L1880.76 280.116ZM1909.56 280.566L1900.49 296.114L1900.73 296.257L1900.98 296.393L1909.56 280.566ZM1915.86 289.341L1898.07 292.078L1900.41 307.341H1915.86V289.341ZM1946.01 289.341V307.341H1965.57L1963.94 287.846L1946.01 289.341ZM1931.16 264.141L1921 279.002L1921.09 279.061L1921.17 279.118L1931.16 264.141ZM1859.16 264.366L1869.67 278.978L1869.75 278.918L1869.83 278.857L1859.16 264.366ZM1856.01 312.741L1843.91 326.074L1844 326.152L1844.09 326.229L1856.01 312.741ZM1886.16 325.566L1882.48 343.186L1882.49 343.189L1882.5 343.191L1886.16 325.566ZM1904.61 329.391L1908.34 311.783L1908.3 311.774L1908.26 311.766L1904.61 329.391ZM1914.73 333.441L1902.57 346.71L1903.14 347.235L1903.76 347.708L1914.73 333.441ZM1912.71 348.741L1922.18 364.046L1922.28 363.987L1922.37 363.927L1912.71 348.741ZM1878.96 347.841L1869.46 363.134L1869.77 363.324L1870.08 363.501L1878.96 347.841ZM1871.31 336.141L1889.12 333.522L1886.85 318.141H1871.31V336.141ZM1841.16 336.141V318.141H1821.74L1823.21 337.504L1841.16 336.141ZM1989.09 366.741L1980.54 382.581L1980.64 382.634L1980.74 382.686L1989.09 366.741ZM2057.27 364.716L2067.59 379.462L2067.61 379.445L2067.64 379.428L2057.27 364.716ZM2076.62 338.391L2093.67 344.152L2101.7 320.391H2076.62V338.391ZM2044.89 338.391V320.391H2033.58L2028.67 330.582L2044.89 338.391ZM2036.12 347.166L2028.57 330.823L2028.57 330.823L2036.12 347.166ZM2000.12 341.316L1986.35 352.91L1986.44 353.015L1986.53 353.118L2000.12 341.316ZM1993.53 324.666V306.666H1972.82L1975.7 327.167L1993.53 324.666ZM2078.64 324.666V342.666H2093.89L2096.4 327.626L2078.64 324.666ZM2079.32 319.041L2097.26 320.422L2097.27 320.373L2097.27 320.324L2079.32 319.041ZM2072.34 282.141L2088.04 273.329L2088.04 273.329L2072.34 282.141ZM2052.09 262.116L2060.79 246.356L2060.79 246.355L2052.09 262.116ZM1988.87 262.566L1997.32 278.455L1997.42 278.403L1997.52 278.349L1988.87 262.566ZM1967.04 283.491L1951.49 274.421L1951.47 274.462L1951.45 274.504L1967.04 283.491ZM1967.04 345.591L1951.38 354.465L1951.44 354.563L1951.49 354.661L1967.04 345.591ZM2000.12 288.216L1986.23 276.761L1986.14 276.865L1986.06 276.971L2000.12 288.216ZM1994.04 302.391L1976.38 298.91L1972.15 320.391H1994.04V302.391ZM2038.82 285.966L2025.87 298.476L2026.09 298.696L2026.31 298.908L2038.82 285.966ZM2045.41 302.391V320.391H2064.9L2063.35 300.963L2045.41 302.391ZM269.374 371.916V209.916H233.374V371.916H269.374ZM286.024 353.916H251.374V389.916H286.024V353.916ZM268.024 305.316V371.916H304.024V305.316H268.024ZM291.26 287.316H286.024V323.316H291.26V287.316ZM356.967 360.91L305.503 294.31L277.017 316.322L328.481 382.922L356.967 360.91ZM389.524 353.916H342.724V389.916H389.524V353.916ZM316.458 317.123L376.098 383.906L402.949 359.926L343.309 293.144L316.458 317.123ZM347.061 283.041C342.184 285.227 336.18 286.711 328.776 287.167L330.992 323.099C341.981 322.421 352.338 320.127 361.787 315.891L347.061 283.041ZM359.795 272.686C357.041 276.731 352.963 280.291 346.827 283.147L362.02 315.784C373.284 310.541 382.707 303.001 389.553 292.946L359.795 272.686ZM363.874 257.841C363.874 264.079 362.344 268.86 359.697 272.831L389.651 292.8C396.603 282.372 399.874 270.503 399.874 257.841H363.874ZM359.697 242.626C362.313 246.55 363.874 251.391 363.874 257.841H399.874C399.874 245.091 396.635 233.132 389.651 222.656L359.697 242.626ZM347.061 232.416C352.993 235.075 356.966 238.53 359.697 242.625L389.651 222.656C382.781 212.352 373.255 204.707 361.787 199.566L347.061 232.416ZM323.824 227.916C333.463 227.916 340.97 229.583 346.827 232.309L362.02 199.672C350.478 194.299 337.584 191.916 323.824 191.916V227.916ZM251.374 227.916H323.824V191.916H251.374V227.916ZM286.024 297.891H322.924V261.891H286.024V297.891ZM322.924 297.891C333.636 297.891 344.786 295.477 353.577 287.899L330.071 260.633C330.058 260.644 329.981 260.709 329.789 260.81C329.592 260.915 329.247 261.07 328.702 261.233C327.579 261.567 325.732 261.891 322.924 261.891V297.891ZM353.613 287.868C362.702 279.991 366.574 269.268 366.574 258.066H330.574C330.574 259.559 330.333 260.218 330.271 260.368C330.237 260.449 330.216 260.477 330.209 260.487C330.202 260.497 330.159 260.556 330.035 260.663L353.613 287.868ZM366.574 258.066C366.574 247.106 363.01 236.073 353.525 228.224L330.573 255.958C330.536 255.928 330.456 255.851 330.373 255.738C330.291 255.625 330.266 255.559 330.279 255.591C330.309 255.665 330.574 256.363 330.574 258.066H366.574ZM353.802 228.458C344.961 220.836 333.688 218.466 322.924 218.466V254.466C325.836 254.466 327.756 254.797 328.926 255.141C329.494 255.308 329.849 255.467 330.046 255.571C330.145 255.622 330.209 255.663 330.245 255.687C330.281 255.711 330.296 255.724 330.296 255.724L353.802 228.458ZM322.924 218.466H286.024V254.466H322.924V218.466ZM268.024 236.466V279.891H304.024V236.466H268.024ZM488.035 367.18C487.39 364.813 486.872 362.16 486.516 359.196L450.773 363.485C451.317 368.021 452.15 372.419 453.304 376.652L488.035 367.18ZM504.42 353.916H470.67V389.916H504.42V353.916ZM483.946 362.61C484.668 367.123 485.723 371.828 487.068 376.703L521.772 367.129C520.716 363.304 519.972 359.909 519.494 356.922L483.946 362.61ZM483.045 348.291C483.045 352.762 483.313 357.276 483.838 361.829L519.601 357.703C519.226 354.456 519.045 351.32 519.045 348.291H483.045ZM483.045 297.666V348.291H519.045V297.666H483.045ZM476.378 279.691C480.176 282.899 483.045 287.935 483.045 297.666H519.045C519.045 279.797 513.214 263.683 499.611 252.191L476.378 279.691ZM450.195 272.916C464.308 272.916 472.113 276.088 476.378 279.691L499.611 252.191C486.476 241.094 469.081 236.916 450.195 236.916V272.916ZM423.305 279.526C428.343 275.809 436.648 272.916 450.195 272.916V236.916C431.941 236.916 415.196 240.772 401.934 250.556L423.305 279.526ZM414.459 293.273C415.205 288.123 417.654 283.695 423.305 279.526L401.934 250.556C389.286 259.887 381.085 272.558 378.831 288.109L414.459 293.273ZM428.82 272.691H396.645V308.691H428.82V272.691ZM426.188 266.644C418.821 270.997 413.765 277.698 411.486 285.838L446.153 295.544C446.117 295.674 445.958 296.123 445.548 296.661C445.133 297.204 444.708 297.516 444.502 297.638L426.188 266.644ZM449.07 261.216C441.543 261.216 433.569 262.469 426.488 266.471L444.202 297.811C444.021 297.913 445.196 297.216 449.07 297.216V261.216ZM474.611 269.887C467.015 263.05 457.403 261.216 449.07 261.216V297.216C450.777 297.216 451.59 297.415 451.772 297.469C451.891 297.505 451.304 297.343 450.528 296.645L474.611 269.887ZM485.295 294.066C485.295 284.884 481.92 275.772 473.895 269.275L451.244 297.256C450.653 296.778 450.027 296.017 449.623 295.093C449.249 294.24 449.295 293.775 449.295 294.066H485.295ZM485.295 299.97V294.066H449.295V299.97H485.295ZM441.457 321.79L469.807 317.794L464.783 282.146L436.433 286.142L441.457 321.79ZM416.565 330.745C421.278 326.905 429.016 323.475 441.36 321.803L436.529 286.129C420.073 288.357 405.311 293.477 393.825 302.837L416.565 330.745ZM411.27 342.441C411.27 336.963 412.99 333.645 416.535 330.769L393.854 302.813C381.499 312.837 375.27 326.619 375.27 342.441H411.27ZM415.183 352.013C412.7 349.862 411.27 347.262 411.27 342.441H375.27C375.27 356.819 380.589 369.67 391.606 379.218L415.183 352.013ZM430.62 356.166C422.212 356.166 417.663 354.105 415.008 351.863L391.781 379.368C402.626 388.526 416.227 392.166 430.62 392.166V356.166ZM445.619 352.511C442.346 354.62 437.658 356.166 430.62 356.166V392.166C443.082 392.166 454.894 389.362 465.12 382.771L445.619 352.511ZM452.266 344.907C450.398 348.511 448.163 350.871 445.619 352.511L465.12 382.771C473.366 377.458 479.715 370.182 484.23 361.468L452.266 344.907ZM486.587 359.905C486.423 357.848 486.305 355.479 486.243 352.778L450.253 353.597C450.327 356.848 450.473 359.914 450.702 362.776L486.587 359.905ZM485.295 330.291V319.609H449.295V330.291H485.295ZM464.568 301.816L441.843 305.299L447.296 340.883L470.021 337.401L464.568 301.816ZM441.9 305.29C434.471 306.404 426.228 308.775 419.7 314.272L442.889 341.809C442.378 342.24 442.267 342.157 443.04 341.869C443.806 341.583 445.146 341.206 447.24 340.892L441.9 305.29ZM419.7 314.273C412.242 320.553 409.02 329.19 409.02 337.941H445.02C445.02 337.886 445.024 338.501 444.614 339.452C444.178 340.46 443.519 341.279 442.889 341.809L419.7 314.273ZM409.02 337.941C409.02 346.63 412.503 355.285 420.531 361.083L441.608 331.899C442.575 332.597 443.602 333.714 444.299 335.185C444.961 336.582 445.02 337.649 445.02 337.941H409.02ZM420.531 361.083C427.211 365.908 434.893 367.416 441.87 367.416V331.416C441.391 331.416 441.045 331.39 440.815 331.362C440.585 331.334 440.488 331.307 440.5 331.311C440.514 331.314 440.639 331.35 440.843 331.444C441.051 331.541 441.316 331.687 441.609 331.899L420.531 361.083ZM441.87 367.416C452.288 367.416 462.245 364.573 470.739 358.139L449 329.443C447.594 330.508 445.551 331.416 441.87 331.416V367.416ZM471.009 357.93C479.165 351.504 485.295 342.197 485.295 330.291H449.295C449.295 330.094 449.321 329.82 449.401 329.51C449.48 329.2 449.586 328.962 449.667 328.816C449.823 328.531 449.729 328.865 448.73 329.652L471.009 357.93ZM623.573 371.916V354.116H587.573V371.916H623.573ZM638.648 353.916H605.573V389.916H638.648V353.916ZM620.648 209.916V371.916H656.648V209.916H620.648ZM604.898 227.916H638.648V191.916H604.898V227.916ZM622.898 274.5V209.916H586.898V274.5H622.898ZM584.524 277.041C586.503 278.504 587.671 280.044 588.426 281.758L621.37 267.241C617.957 259.498 612.675 253.082 605.922 248.091L584.524 277.041ZM568.673 272.916C576.864 272.916 581.559 274.802 584.372 276.927L606.074 248.204C595.387 240.13 582.382 236.916 568.673 236.916V272.916ZM550.512 277.621C555.271 274.658 561.117 272.916 568.673 272.916V236.916C555.229 236.916 542.625 240.124 531.484 247.061L550.512 277.621ZM538.979 291.099C541.995 284.86 545.905 280.546 550.643 277.539L531.353 247.143C520.491 254.036 512.251 263.672 506.567 275.433L538.979 291.099ZM534.248 314.991C534.248 304.979 536.037 297.187 538.979 291.099L506.567 275.433C500.809 287.345 498.248 300.703 498.248 314.991H534.248ZM538.81 338.549C535.982 332.591 534.248 324.91 534.248 314.991H498.248C498.248 329.072 500.714 342.241 506.286 353.983L538.81 338.549ZM550.101 351.854C545.468 348.856 541.689 344.615 538.81 338.548L506.286 353.983C511.807 365.616 519.878 375.176 530.544 382.078L550.101 351.854ZM567.773 356.166C560.106 356.166 554.324 354.446 549.757 351.636L530.889 382.296C541.922 389.085 554.44 392.166 567.773 392.166V356.166ZM584.268 351.811C580.363 354.441 575.157 356.166 567.773 356.166V392.166C581.089 392.166 593.583 388.941 604.378 381.671L584.268 351.811ZM589.244 346.542C588.505 348.135 587.167 349.897 584.408 351.718L604.238 381.764C611.843 376.744 618.005 370.09 621.902 361.691L589.244 346.542ZM578.573 365.166C591.254 365.166 602.734 360.49 611.356 350.822L584.49 326.86C583.212 328.292 581.792 329.166 578.573 329.166V365.166ZM545.519 351.02C554.303 360.579 565.857 365.166 578.573 365.166V329.166C575.089 329.166 573.443 328.203 572.027 326.662L545.519 351.02ZM533.348 314.766C533.348 327.874 536.433 340.835 545.34 350.822L572.206 326.86C571.213 325.746 569.348 322.658 569.348 314.766H533.348ZM545.182 278.664C536.448 288.721 533.348 301.618 533.348 314.766H569.348C569.348 306.913 571.198 303.611 572.364 302.268L545.182 278.664ZM578.123 263.916C565.318 263.916 553.95 268.862 545.359 278.464L572.187 302.468C573.796 300.67 575.328 299.916 578.123 299.916V263.916ZM611.289 278.664C602.647 268.713 591.006 263.916 578.123 263.916V299.916C581.44 299.916 582.849 300.819 584.107 302.268L611.289 278.664ZM623.348 314.541C623.348 301.31 620.126 288.27 610.952 278.287L584.444 302.645C585.47 303.761 587.348 306.772 587.348 314.541H623.348ZM611.514 350.643C620.248 340.586 623.348 327.688 623.348 314.541H587.348C587.348 322.393 585.498 325.696 584.332 327.039L611.514 350.643ZM683.632 371.916V209.916H647.632V371.916H683.632ZM699.382 353.916H665.632V389.916H699.382V353.916ZM681.382 310.266V371.916H717.382V310.266H681.382ZM686.891 286.916C682.99 294.198 681.382 302.18 681.382 310.266H717.382C717.382 306.952 718.025 305.034 718.624 303.916L686.891 286.916ZM703.256 270.031C696.448 274.065 691.031 279.657 687.129 286.485L718.385 304.346C719.283 302.775 720.317 301.767 721.609 301.001L703.256 270.031ZM726.607 263.916C718.5 263.916 710.651 265.802 703.502 269.888L721.363 301.144C722.613 300.43 724.214 299.916 726.607 299.916V263.916ZM753.285 273.913C745.643 266.271 735.678 263.916 726.607 263.916V299.916C728.193 299.916 728.869 300.124 728.933 300.146C728.949 300.151 728.814 300.107 728.587 299.969C728.355 299.828 728.088 299.628 727.829 299.369L753.285 273.913ZM763.507 300.816C763.507 291.522 761.031 281.3 752.986 273.621L728.129 299.661C727.857 299.402 727.64 299.128 727.483 298.878C727.33 298.634 727.276 298.481 727.276 298.481C727.288 298.515 727.507 299.186 727.507 300.816H763.507ZM763.507 371.916V300.816H727.507V371.916H763.507ZM779.257 353.916H745.507V389.916H779.257V353.916ZM761.257 294.291V371.916H797.257V294.291H761.257ZM756.131 278.164C758.972 281.132 761.257 285.807 761.257 294.291H797.257C797.257 278.775 792.792 264.4 782.134 253.268L756.131 278.164ZM739.882 272.916C749.189 272.916 753.576 275.441 756.001 278.027L782.264 253.405C771.188 241.591 756.075 236.916 739.882 236.916V272.916ZM723.144 277.354C726.943 274.718 732.186 272.916 739.882 272.916V236.916C726.278 236.916 713.522 240.213 702.621 247.777L723.144 277.354ZM714.812 286.231C716.994 282.599 719.721 279.708 723.08 277.399L702.685 247.733C695.023 253.001 688.749 259.707 683.952 267.693L714.812 286.231ZM681.382 209.916V276.962H717.382V209.916H681.382ZM665.632 227.916H699.382V191.916H665.632V227.916ZM858.939 356.166C848.533 356.166 840.406 354.156 833.991 350.796L817.287 382.686C829.771 389.225 843.844 392.166 858.939 392.166V356.166ZM883.491 349.97C878.302 353.602 870.587 356.166 858.939 356.166V392.166C875.79 392.166 891.325 388.43 904.136 379.462L883.491 349.97ZM896.111 332.63C893.522 340.293 889.321 345.86 883.443 350.004L904.185 379.428C916.606 370.672 925.306 358.689 930.217 344.152L896.111 332.63ZM881.439 356.391H913.164V320.391H881.439V356.391ZM880.207 363.509C888.088 359.872 893.985 353.826 897.657 346.199L865.221 330.582C865.13 330.771 865.064 330.871 865.04 330.906C865.016 330.939 865.02 330.929 865.055 330.894C865.09 330.859 865.128 330.827 865.16 330.805C865.191 330.784 865.185 330.793 865.121 330.823L880.207 363.509ZM858.714 367.866C866.069 367.866 873.416 366.644 880.207 363.509L865.121 330.823C864.112 331.288 862.159 331.866 858.714 331.866V367.866ZM823.073 353.118C832.38 363.835 845.374 367.866 858.714 367.866V331.866C852.553 331.866 850.848 330.197 850.254 329.514L823.073 353.118ZM812.248 327.167C813.549 336.442 816.675 345.524 822.895 352.91L850.432 329.721C849.845 329.025 848.578 327.006 847.899 322.165L812.248 327.167ZM915.189 306.666H830.073V342.666H915.189V306.666ZM897.917 317.66C897.805 319.119 897.641 320.465 897.434 321.706L932.944 327.626C933.337 325.266 933.623 322.863 933.811 320.422L897.917 317.66ZM898.089 312.291C898.089 314.321 898.025 316.139 897.91 317.759L933.818 320.323C934.002 317.742 934.089 315.061 934.089 312.291H898.089ZM893.193 290.953C896.233 296.368 898.089 303.276 898.089 312.291H934.089C934.089 298.206 931.144 285.014 924.584 273.329L893.193 290.953ZM879.943 277.876C885.75 281.08 890.057 285.366 893.193 290.952L924.584 273.329C918.121 261.815 908.928 252.752 897.334 246.355L879.943 277.876ZM857.814 272.916C867.208 272.916 874.375 274.804 879.943 277.876L897.334 246.355C885.502 239.827 872.12 236.916 857.814 236.916V272.916ZM834.069 278.349C840.32 274.921 848.053 272.916 857.814 272.916V236.916C842.975 236.916 829.108 240.011 816.759 246.783L834.069 278.349ZM819.137 292.561C822.683 286.482 827.487 281.853 833.871 278.455L816.956 246.676C804.74 253.179 794.995 262.5 788.041 274.421L819.137 292.561ZM813.939 314.541C813.939 305.335 815.897 298.184 819.185 292.478L787.993 274.504C781.081 286.498 777.939 300.047 777.939 314.541H813.939ZM819.249 336.717C815.875 330.762 813.939 323.545 813.939 314.541H777.939C777.939 328.937 781.103 342.42 787.928 354.465L819.249 336.717ZM834.188 350.901C827.555 347.321 822.667 342.574 819.137 336.521L788.041 354.661C795.01 366.608 804.823 375.961 817.09 382.581L834.188 350.901ZM822.608 276.971C817.466 283.4 814.485 291.014 812.929 298.91L848.249 305.871C848.988 302.124 850.057 300.288 850.719 299.46L822.608 276.971ZM857.364 261.216C843.972 261.216 831.645 266.015 822.779 276.761L850.548 299.671C851.583 298.417 853.055 297.216 857.364 297.216V261.216ZM888.306 273.455C879.834 264.692 868.733 261.216 857.364 261.216V297.216C861.294 297.216 862.193 298.24 862.422 298.476L888.306 273.455ZM899.903 300.963C899.106 290.96 895.85 280.734 887.874 273.024L862.853 298.908C862.516 298.582 863.657 299.306 864.016 303.819L899.903 300.963ZM830.589 320.391H881.959V284.391H830.589V320.391ZM992.735 371.916V209.916H956.735V371.916H992.735ZM990.935 353.916H974.735V389.916H990.935V353.916ZM1009.38 353.916H990.935V389.916H1009.38V353.916ZM1095.33 353.916H1009.38V389.916H1095.33V353.916ZM1077.33 345.366V371.916H1113.33V345.366H1077.33ZM1009.38 363.366H1095.33V327.366H1009.38V363.366ZM991.385 302.166V345.366H1027.38V302.166H991.385ZM1087.46 284.166H1009.38V320.166H1087.46V284.166ZM1069.46 276.066V302.166H1105.46V276.066H1069.46ZM1009.38 294.066H1087.46V258.066H1009.38V294.066ZM991.385 236.466V276.066H1027.38V236.466H991.385ZM1092.63 218.466H1009.38V254.466H1092.63V218.466ZM1074.63 209.916V236.466H1110.63V209.916H1074.63ZM1009.38 227.916H1092.63V191.916H1009.38V227.916ZM990.935 227.916H1009.38V191.916H990.935V227.916ZM974.735 227.916H990.935V191.916H974.735V227.916ZM1117.83 275.166H1150.9V239.166H1117.83V275.166ZM1135.83 371.916V257.166H1099.83V371.916H1135.83ZM1151.58 353.916H1117.83V389.916H1151.58V353.916ZM1133.58 310.266V371.916H1169.58V310.266H1133.58ZM1139.09 286.916C1135.19 294.198 1133.58 302.18 1133.58 310.266H1169.58C1169.58 306.952 1170.22 305.034 1170.82 303.916L1139.09 286.916ZM1155.45 270.031C1148.64 274.065 1143.23 279.657 1139.33 286.485L1170.58 304.346C1171.48 302.775 1172.51 301.767 1173.81 301.001L1155.45 270.031ZM1178.8 263.916C1170.7 263.916 1162.85 265.802 1155.7 269.888L1173.56 301.144C1174.81 300.43 1176.41 299.916 1178.8 299.916V263.916ZM1205.48 273.913C1197.84 266.271 1187.87 263.916 1178.8 263.916V299.916C1180.39 299.916 1181.07 300.124 1181.13 300.146C1181.15 300.151 1181.01 300.107 1180.78 299.969C1180.55 299.828 1180.29 299.628 1180.03 299.369L1205.48 273.913ZM1215.7 300.816C1215.7 291.522 1213.23 281.3 1205.18 273.62L1180.33 299.661C1180.05 299.402 1179.84 299.128 1179.68 298.878C1179.53 298.634 1179.47 298.481 1179.47 298.481C1179.49 298.515 1179.7 299.186 1179.7 300.816H1215.7ZM1215.7 371.916V300.816H1179.7V371.916H1215.7ZM1231.45 353.916H1197.7V389.916H1231.45V353.916ZM1213.45 294.291V371.916H1249.45V294.291H1213.45ZM1208.33 278.164C1211.17 281.132 1213.45 285.807 1213.45 294.291H1249.45C1249.45 278.775 1244.99 264.4 1234.33 253.268L1208.33 278.164ZM1192.08 272.916C1201.39 272.916 1205.77 275.441 1208.2 278.027L1234.46 253.405C1223.39 241.591 1208.27 236.916 1192.08 236.916V272.916ZM1175.34 277.354C1179.14 274.718 1184.38 272.916 1192.08 272.916V236.916C1178.48 236.916 1165.72 240.213 1154.82 247.777L1175.34 277.354ZM1166.58 286.974C1168.84 282.975 1171.71 279.853 1175.28 277.399L1154.88 247.733C1146.71 253.354 1140.13 260.602 1135.23 269.267L1166.58 286.974ZM1132.9 257.166V278.121H1168.9V257.166H1132.9ZM1306.75 356.391C1294.61 356.391 1289.06 353.462 1286.5 350.955L1261.31 376.677C1273.15 388.27 1289.5 392.391 1306.75 392.391V356.391ZM1315.37 355.757C1313.15 356.144 1310.3 356.391 1306.75 356.391V392.391C1311.9 392.391 1316.86 392.038 1321.54 391.225L1315.37 355.757ZM1318.24 355.167C1318.62 354.963 1318.65 355.006 1318.1 355.168C1317.58 355.323 1316.74 355.528 1315.49 355.736L1321.41 391.246C1325.87 390.503 1330.86 389.262 1335.31 386.864L1318.24 355.167ZM1308.78 345.366V371.016H1344.78V345.366H1308.78ZM1324.97 364.48C1327.35 363.931 1329.72 363.294 1332.07 362.57L1321.48 328.162C1319.94 328.638 1318.4 329.05 1316.88 329.402L1324.97 364.48ZM1314.63 365.616C1318.07 365.616 1321.54 365.271 1324.97 364.48L1316.88 329.402C1316.41 329.51 1315.68 329.616 1314.63 329.616V365.616ZM1289.35 357.205C1296.94 363.993 1306.6 365.616 1314.63 365.616V329.616C1313.76 329.616 1313.09 329.569 1312.61 329.51C1312.12 329.451 1311.87 329.384 1311.79 329.363C1311.66 329.325 1312.39 329.515 1313.35 330.377L1289.35 357.205ZM1279.08 332.316C1279.08 340.74 1281.52 350.202 1289.35 357.205L1313.35 330.377C1313.77 330.745 1314.13 331.167 1314.43 331.614C1314.73 332.057 1314.91 332.447 1315.01 332.726C1315.21 333.255 1315.08 333.235 1315.08 332.316H1279.08ZM1279.08 282.816V332.316H1315.08V282.816H1279.08ZM1326.78 264.816H1297.08V300.816H1326.78V264.816ZM1308.78 257.166V282.816H1344.78V257.166H1308.78ZM1297.08 275.166H1326.78V239.166H1297.08V275.166ZM1279.08 218.916V257.166H1315.08V218.916H1279.08ZM1269.62 248.379L1303.37 235.779L1290.78 202.053L1257.03 214.653L1269.62 248.379ZM1281.33 257.166V231.516H1245.33V257.166H1281.33ZM1241.95 275.166H1263.33V239.166H1241.95V275.166ZM1259.95 282.816V257.166H1223.95V282.816H1259.95ZM1263.33 264.816H1241.95V300.816H1263.33V264.816ZM1281.33 331.191V282.816H1245.33V331.191H1281.33ZM1286.76 351.223C1284.23 348.632 1281.33 343.122 1281.33 331.191H1245.33C1245.33 348.359 1249.48 364.6 1261.04 376.409L1286.76 351.223ZM1397.05 356.166C1386.64 356.166 1378.52 354.156 1372.1 350.796L1355.4 382.686C1367.88 389.225 1381.95 392.166 1397.05 392.166V356.166ZM1421.6 349.97C1416.41 353.602 1408.7 356.166 1397.05 356.166V392.166C1413.9 392.166 1429.44 388.43 1442.25 379.462L1421.6 349.97ZM1434.22 332.63C1431.63 340.293 1427.43 345.86 1421.55 350.004L1442.29 379.428C1454.72 370.672 1463.42 358.689 1468.33 344.152L1434.22 332.63ZM1419.55 356.391H1451.27V320.391H1419.55V356.391ZM1418.32 363.509C1426.2 359.871 1432.1 353.826 1435.77 346.199L1403.33 330.582C1403.24 330.771 1403.17 330.871 1403.15 330.906C1403.13 330.939 1403.13 330.929 1403.16 330.894C1403.2 330.859 1403.24 330.828 1403.27 330.806C1403.3 330.784 1403.3 330.793 1403.23 330.823L1418.32 363.509ZM1396.82 367.866C1404.18 367.866 1411.53 366.644 1418.32 363.509L1403.23 330.823C1402.22 331.288 1400.27 331.866 1396.82 331.866V367.866ZM1361.18 353.118C1370.49 363.835 1383.48 367.866 1396.82 367.866V331.866C1390.66 331.866 1388.96 330.197 1388.36 329.514L1361.18 353.118ZM1350.36 327.167C1351.66 336.443 1354.79 345.524 1361.01 352.91L1388.54 329.721C1387.96 329.025 1386.69 327.006 1386.01 322.165L1350.36 327.167ZM1453.3 306.666H1368.18V342.666H1453.3V306.666ZM1436.03 317.66C1435.91 319.119 1435.75 320.465 1435.54 321.706L1471.05 327.626C1471.45 325.266 1471.73 322.863 1471.92 320.422L1436.03 317.66ZM1436.2 312.291C1436.2 314.321 1436.14 316.139 1436.02 317.758L1471.93 320.324C1472.11 317.742 1472.2 315.061 1472.2 312.291H1436.2ZM1431.3 290.952C1434.34 296.368 1436.2 303.276 1436.2 312.291H1472.2C1472.2 298.206 1469.25 285.014 1462.69 273.329L1431.3 290.952ZM1418.05 277.876C1423.86 281.08 1428.17 285.366 1431.3 290.953L1462.69 273.329C1456.23 261.815 1447.04 252.752 1435.44 246.356L1418.05 277.876ZM1395.92 272.916C1405.32 272.916 1412.49 274.804 1418.05 277.876L1435.44 246.355C1423.61 239.828 1410.23 236.916 1395.92 236.916V272.916ZM1372.18 278.348C1378.43 274.921 1386.16 272.916 1395.92 272.916V236.916C1381.09 236.916 1367.22 240.011 1354.87 246.783L1372.18 278.348ZM1357.25 292.561C1360.79 286.482 1365.6 281.853 1371.98 278.455L1355.07 246.676C1342.85 253.179 1333.11 262.5 1326.15 274.421L1357.25 292.561ZM1352.05 314.541C1352.05 305.335 1354.01 298.184 1357.29 292.478L1326.1 274.504C1319.19 286.498 1316.05 300.047 1316.05 314.541H1352.05ZM1357.36 336.717C1353.99 330.762 1352.05 323.545 1352.05 314.541H1316.05C1316.05 328.937 1319.21 342.42 1326.04 354.465L1357.36 336.717ZM1372.3 350.9C1365.67 347.321 1360.78 342.574 1357.25 336.521L1326.15 354.661C1333.12 366.608 1342.93 375.961 1355.2 382.581L1372.3 350.9ZM1360.72 276.971C1355.58 283.4 1352.6 291.014 1351.04 298.91L1386.36 305.872C1387.1 302.124 1388.17 300.288 1388.83 299.46L1360.72 276.971ZM1395.47 261.216C1382.08 261.216 1369.75 266.015 1360.89 276.761L1388.66 299.671C1389.69 298.417 1391.17 297.216 1395.47 297.216V261.216ZM1426.42 273.456C1417.94 264.692 1406.84 261.216 1395.47 261.216V297.216C1399.4 297.216 1400.3 298.24 1400.53 298.476L1426.42 273.456ZM1438.01 300.963C1437.22 290.96 1433.96 280.734 1425.98 273.024L1400.96 298.908C1400.63 298.582 1401.77 299.306 1402.13 303.819L1438.01 300.963ZM1368.7 320.391H1420.07V284.391H1368.7V320.391ZM1472.25 275.166H1505.32V239.166H1472.25V275.166ZM1490.25 371.916V257.166H1454.25V371.916H1490.25ZM1506 353.916H1472.25V389.916H1506V353.916ZM1488 312.066V371.916H1524V312.066H1488ZM1502.99 277.989C1491.4 286.511 1488 299.858 1488 312.066H1524C1524 308.965 1524.44 307.363 1524.68 306.749C1524.85 306.311 1524.79 306.637 1524.31 306.993L1502.99 277.989ZM1537.5 268.641C1525.2 268.641 1512.46 270.739 1502.71 278.192L1524.58 306.789C1525.04 306.443 1528.2 304.641 1537.5 304.641V268.641ZM1544.44 268.976C1542.21 268.729 1539.85 268.641 1537.5 268.641V304.641C1539.04 304.641 1539.99 304.703 1540.46 304.756L1544.44 268.976ZM1552.28 270.603C1548.45 269.069 1544.76 268.866 1542.45 268.866V304.866C1542.49 304.866 1542.21 304.87 1541.7 304.797C1541.22 304.729 1540.21 304.547 1538.91 304.028L1552.28 270.603ZM1527.6 255.816V287.316H1563.6V255.816H1527.6ZM1539.3 272.916C1539.7 272.916 1540 272.927 1540.21 272.939C1540.42 272.952 1540.5 272.964 1540.47 272.96C1540.44 272.956 1540.24 272.927 1539.9 272.839C1539.57 272.753 1539.01 272.583 1538.29 272.265L1552.91 239.367C1547.99 237.181 1542.76 236.916 1539.3 236.916V272.916ZM1527.84 276.421C1530.3 274.384 1533.7 272.916 1539.3 272.916V236.916C1526.6 236.916 1514.7 240.548 1504.86 248.71L1527.84 276.421ZM1521.98 285.018C1523.73 280.743 1525.8 278.114 1527.84 276.422L1504.86 248.71C1497.56 254.762 1492.28 262.558 1488.66 271.388L1521.98 285.018ZM1487.32 257.166V278.203H1523.32V257.166H1487.32ZM1631.87 356.166C1623.66 356.166 1619.14 354.27 1616.55 352.273L1594.54 380.759C1605.16 388.961 1618.19 392.166 1631.87 392.166V356.166ZM1649.9 351.543C1645.41 354.396 1639.64 356.166 1631.87 356.166V392.166C1645.4 392.166 1658.09 388.985 1669.19 381.939L1649.9 351.543ZM1661.57 337.983C1658.55 344.222 1654.64 348.536 1649.9 351.543L1669.19 381.939C1680.05 375.046 1688.29 365.41 1693.98 353.649L1661.57 337.983ZM1666.3 314.091C1666.3 324.103 1664.51 331.895 1661.57 337.983L1693.98 353.649C1699.74 341.737 1702.3 328.379 1702.3 314.091H1666.3ZM1661.74 290.533C1664.56 296.491 1666.3 304.172 1666.3 314.091H1702.3C1702.3 300.01 1699.83 286.841 1694.26 275.099L1661.74 290.533ZM1650.88 277.588C1655.32 280.375 1658.92 284.39 1661.63 290.306L1694.36 275.326C1688.97 263.541 1680.87 253.907 1670.01 247.094L1650.88 277.588ZM1633.67 272.916C1641.05 272.916 1646.4 274.638 1650.53 277.364L1670.36 247.318C1659.49 240.144 1647 236.916 1633.67 236.916V272.916ZM1616.5 277.271C1620.28 274.723 1625.66 272.916 1633.67 272.916V236.916C1620.08 236.916 1607.31 240.059 1596.39 247.411L1616.5 277.271ZM1611.47 282.773C1612.28 280.918 1613.65 279.137 1616.29 277.412L1596.6 247.27C1588.62 252.488 1582.33 259.533 1578.47 268.386L1611.47 282.773ZM1576.97 257.166V275.58H1612.97V257.166H1576.97ZM1561.9 275.166H1594.97V239.166H1561.9V275.166ZM1579.9 418.041V257.166H1543.9V418.041H1579.9ZM1595.65 400.041H1561.9V436.041H1595.65V400.041ZM1577.65 353.025V418.041H1613.65V353.025H1577.65ZM1616.55 352.273C1614.58 350.748 1613.35 349.038 1612.56 346.867L1578.73 359.183C1581.89 367.848 1587.26 375.133 1594.54 380.759L1616.55 352.273ZM1622.42 365.166C1635.27 365.166 1646.79 360.287 1655.36 350.418L1628.18 326.814C1626.85 328.345 1625.47 329.166 1622.42 329.166V365.166ZM1589.37 351.02C1598.15 360.579 1609.71 365.166 1622.42 365.166V329.166C1618.94 329.166 1617.29 328.203 1615.88 326.662L1589.37 351.02ZM1577.2 314.541C1577.2 327.688 1580.3 340.586 1589.03 350.643L1616.21 327.038C1615.05 325.696 1613.2 322.393 1613.2 314.541H1577.2ZM1589.19 278.485C1580.28 288.471 1577.2 301.433 1577.2 314.541H1613.2C1613.2 306.649 1615.06 303.56 1616.06 302.447L1589.19 278.485ZM1621.97 263.916C1609.17 263.916 1597.8 268.862 1589.21 278.464L1616.04 302.468C1617.64 300.67 1619.18 299.916 1621.97 299.916V263.916ZM1654.98 278.26C1646.29 268.513 1634.69 263.916 1621.97 263.916V299.916C1625.45 299.916 1626.91 300.869 1628.11 302.222L1654.98 278.26ZM1667.2 314.316C1667.2 301.085 1663.97 288.045 1654.8 278.062L1628.29 302.42C1629.32 303.536 1631.2 306.547 1631.2 314.316H1667.2ZM1655.36 350.418C1664.1 340.361 1667.2 327.463 1667.2 314.316H1631.2C1631.2 322.168 1629.35 325.471 1628.18 326.813L1655.36 350.418ZM1703.18 275.166H1736.26V239.166H1703.18V275.166ZM1721.18 371.916V257.166H1685.18V371.916H1721.18ZM1736.93 353.916H1703.18V389.916H1736.93V353.916ZM1718.93 312.066V371.916H1754.93V312.066H1718.93ZM1733.92 277.989C1722.33 286.511 1718.93 299.858 1718.93 312.066H1754.93C1754.93 308.965 1755.37 307.363 1755.61 306.749C1755.78 306.311 1755.73 306.637 1755.24 306.993L1733.92 277.989ZM1768.43 268.641C1756.13 268.641 1743.39 270.739 1733.65 278.192L1755.52 306.789C1755.97 306.443 1759.13 304.641 1768.43 304.641V268.641ZM1775.37 268.976C1773.14 268.729 1770.79 268.641 1768.43 268.641V304.641C1769.98 304.641 1770.92 304.703 1771.39 304.756L1775.37 268.976ZM1783.22 270.604C1779.38 269.069 1775.69 268.866 1773.38 268.866V304.866C1773.42 304.866 1773.14 304.87 1772.64 304.797C1772.16 304.729 1771.14 304.547 1769.84 304.028L1783.22 270.604ZM1758.53 255.816V287.316H1794.53V255.816H1758.53ZM1770.23 272.916C1770.63 272.916 1770.93 272.927 1771.14 272.939C1771.35 272.952 1771.43 272.964 1771.4 272.96C1771.37 272.956 1771.17 272.927 1770.83 272.839C1770.5 272.753 1769.94 272.583 1769.22 272.264L1783.84 239.367C1778.92 237.181 1773.69 236.916 1770.23 236.916V272.916ZM1758.77 276.421C1761.23 274.384 1764.63 272.916 1770.23 272.916V236.916C1757.53 236.916 1745.63 240.548 1735.79 248.71L1758.77 276.421ZM1752.92 285.018C1754.66 280.743 1756.73 278.114 1758.77 276.422L1735.79 248.71C1728.49 254.762 1723.21 262.558 1719.6 271.388L1752.92 285.018ZM1718.26 257.166V278.203H1754.26V257.166H1718.26ZM1791.07 275.166H1824.82V239.166H1791.07V275.166ZM1809.07 371.916V257.166H1773.07V371.916H1809.07ZM1824.82 353.916H1791.07V389.916H1824.82V353.916ZM1806.82 257.166V371.916H1842.82V257.166H1806.82ZM1807.95 241.866V205.416H1771.95V241.866H1807.95ZM1825.95 223.866H1789.95V259.866H1825.95V223.866ZM1807.95 205.416V241.866H1843.95V205.416H1807.95ZM1789.95 223.416H1825.95V187.416H1789.95V223.416ZM1897.41 356.166C1882.82 356.166 1873.43 353.212 1867.5 349.169L1847.22 378.913C1861.09 388.369 1878.39 392.166 1897.41 392.166V356.166ZM1924.14 350.243C1919.67 353.407 1911.51 356.166 1897.41 356.166V392.166C1915.4 392.166 1932 388.775 1944.92 379.639L1924.14 350.243ZM1929.81 338.616C1929.81 344.288 1928 347.494 1924.09 350.277L1944.97 379.605C1958.76 369.788 1965.81 355.444 1965.81 338.616H1929.81ZM1925.63 327.926C1928.51 331.028 1929.81 334.291 1929.81 338.616H1965.81C1965.81 325.24 1961.1 313.204 1951.99 303.406L1925.63 327.926ZM1909.04 319.789C1918.07 321.665 1922.8 324.747 1925.34 327.605L1952.28 303.726C1943.11 293.384 1930.44 287.467 1916.37 284.542L1909.04 319.789ZM1888.37 315.519L1909.07 319.794L1916.35 284.538L1895.65 280.263L1888.37 315.519ZM1870.54 309.105C1875.71 312.334 1882.24 314.196 1888.2 315.484L1895.81 280.297C1893.49 279.796 1891.81 279.327 1890.65 278.935C1889.41 278.513 1889.23 278.33 1889.62 278.577L1870.54 309.105ZM1858.48 287.316C1858.48 296.473 1863.05 303.977 1869.88 308.674L1890.28 279.008C1890.99 279.496 1892.18 280.525 1893.14 282.277C1894.14 284.08 1894.48 285.896 1894.48 287.316H1858.48ZM1871.74 264.538C1863.64 269.227 1858.48 277.392 1858.48 287.316H1894.48C1894.48 288.55 1894.17 290.418 1893.03 292.343C1891.91 294.229 1890.53 295.255 1889.78 295.694L1871.74 264.538ZM1894.26 259.416C1887.04 259.416 1878.64 260.393 1871.5 264.681L1890.02 295.551C1889.29 295.985 1889.09 295.906 1889.91 295.741C1890.71 295.582 1892.1 295.416 1894.26 295.416V259.416ZM1918.63 265.018C1911.11 260.635 1902.36 259.416 1894.26 259.416V295.416C1896.64 295.416 1898.31 295.61 1899.4 295.834C1900.49 296.059 1900.74 296.259 1900.49 296.114L1918.63 265.018ZM1933.65 286.604C1932.15 276.898 1926.46 269.252 1918.13 264.739L1900.98 296.393C1900.72 296.25 1899.95 295.754 1899.21 294.72C1898.45 293.667 1898.16 292.655 1898.07 292.078L1933.65 286.604ZM1946.01 271.341H1915.86V307.341H1946.01V271.341ZM1921.17 279.118C1925.59 282.065 1927.62 285.495 1928.07 290.836L1963.94 287.846C1962.59 271.586 1954.72 258.217 1941.14 249.164L1921.17 279.118ZM1894.93 272.916C1907.83 272.916 1915.95 275.552 1921 279.002L1941.31 249.279C1928.36 240.429 1912.34 236.916 1894.93 236.916V272.916ZM1869.83 278.857C1874.2 275.644 1881.84 272.916 1894.93 272.916V236.916C1877.42 236.916 1861.22 240.488 1848.48 249.875L1869.83 278.857ZM1864.33 290.241C1864.33 284.565 1866.11 281.537 1869.67 278.978L1848.65 249.753C1835.1 259.495 1828.33 273.716 1828.33 290.241H1864.33ZM1868.1 299.408C1865.62 297.161 1864.33 294.604 1864.33 290.241H1828.33C1828.33 304.178 1833.49 316.621 1843.91 326.074L1868.1 299.408ZM1889.84 307.946C1877.54 305.38 1871.01 301.977 1867.93 299.253L1844.09 326.229C1853.91 334.905 1867.47 340.052 1882.48 343.186L1889.84 307.946ZM1908.26 311.766L1889.81 307.941L1882.5 343.191L1900.95 347.016L1908.26 311.766ZM1926.89 320.172C1921.29 315.032 1913.73 312.925 1908.34 311.783L1900.87 346.999C1901.76 347.187 1902.47 347.367 1903.04 347.53C1903.61 347.695 1903.97 347.826 1904.17 347.903C1904.37 347.984 1904.3 347.974 1904.06 347.832C1903.82 347.695 1903.26 347.346 1902.57 346.71L1926.89 320.172ZM1935.66 339.966C1935.66 332.529 1932.82 324.649 1925.71 319.174L1903.76 347.708C1902.45 346.703 1901.27 345.279 1900.5 343.56C1899.77 341.924 1899.66 340.59 1899.66 339.966H1935.66ZM1922.37 363.927C1930.59 358.695 1935.66 350.183 1935.66 339.966H1899.66C1899.66 339.111 1899.87 337.669 1900.74 336.129C1901.59 334.62 1902.61 333.83 1903.04 333.555L1922.37 363.927ZM1897.41 369.666C1905.26 369.666 1914.61 368.735 1922.18 364.046L1903.23 333.436C1904.11 332.89 1904.33 333.027 1903.14 333.255C1902.02 333.469 1900.17 333.666 1897.41 333.666V369.666ZM1870.08 363.501C1878.32 368.171 1887.95 369.666 1897.41 369.666V333.666C1891.26 333.666 1888.59 332.61 1887.83 332.18L1870.08 363.501ZM1853.5 338.76C1855.01 349.061 1860.58 357.618 1869.46 363.134L1888.45 332.547C1888.35 332.483 1888.37 332.487 1888.47 332.583C1888.58 332.684 1888.72 332.838 1888.85 333.04C1888.98 333.242 1889.06 333.422 1889.11 333.544C1889.15 333.661 1889.14 333.668 1889.12 333.522L1853.5 338.76ZM1841.16 354.141H1871.31V318.141H1841.16V354.141ZM1867.5 349.169C1862.07 345.471 1859.59 341.12 1859.11 334.778L1823.21 337.504C1824.53 354.862 1832.84 369.11 1847.22 378.913L1867.5 349.169ZM2022.39 356.166C2011.99 356.166 2003.86 354.156 1997.44 350.796L1980.74 382.686C1993.22 389.225 2007.3 392.166 2022.39 392.166V356.166ZM2046.94 349.97C2041.75 353.602 2034.04 356.166 2022.39 356.166V392.166C2039.24 392.166 2054.78 388.43 2067.59 379.462L2046.94 349.97ZM2059.56 332.63C2056.97 340.293 2052.77 345.86 2046.9 350.004L2067.64 379.428C2080.06 370.672 2088.76 358.689 2093.67 344.152L2059.56 332.63ZM2044.89 356.391H2076.62V320.391H2044.89V356.391ZM2043.66 363.509C2051.54 359.872 2057.44 353.826 2061.11 346.199L2028.67 330.582C2028.58 330.771 2028.52 330.871 2028.49 330.906C2028.47 330.939 2028.47 330.929 2028.51 330.894C2028.54 330.859 2028.58 330.827 2028.61 330.805C2028.64 330.784 2028.64 330.793 2028.57 330.823L2043.66 363.509ZM2022.17 367.866C2029.52 367.866 2036.87 366.644 2043.66 363.509L2028.57 330.823C2027.56 331.288 2025.61 331.866 2022.17 331.866V367.866ZM1986.53 353.118C1995.83 363.835 2008.83 367.866 2022.17 367.866V331.866C2016.01 331.866 2014.3 330.197 2013.71 329.513L1986.53 353.118ZM1975.7 327.167C1977 336.443 1980.13 345.524 1986.35 352.91L2013.88 329.722C2013.3 329.025 2012.03 327.006 2011.35 322.165L1975.7 327.167ZM2078.64 306.666H1993.53V342.666H2078.64V306.666ZM2061.37 317.66C2061.26 319.119 2061.09 320.465 2060.89 321.706L2096.4 327.626C2096.79 325.266 2097.08 322.863 2097.26 320.422L2061.37 317.66ZM2061.54 312.291C2061.54 314.321 2061.48 316.139 2061.36 317.758L2097.27 320.324C2097.45 317.742 2097.54 315.061 2097.54 312.291H2061.54ZM2056.65 290.952C2059.69 296.368 2061.54 303.276 2061.54 312.291H2097.54C2097.54 298.206 2094.6 285.014 2088.04 273.329L2056.65 290.952ZM2043.4 277.876C2049.2 281.08 2053.51 285.366 2056.65 290.953L2088.04 273.329C2081.57 261.815 2072.38 252.752 2060.79 246.356L2043.4 277.876ZM2021.27 272.916C2030.66 272.916 2037.83 274.804 2043.4 277.876L2060.79 246.355C2048.95 239.827 2035.57 236.916 2021.27 236.916V272.916ZM1997.52 278.349C2003.77 274.921 2011.5 272.916 2021.27 272.916V236.916C2006.43 236.916 1992.56 240.011 1980.21 246.783L1997.52 278.349ZM1982.59 292.561C1986.13 286.482 1990.94 281.853 1997.32 278.455L1980.41 246.676C1968.19 253.179 1958.45 262.5 1951.49 274.421L1982.59 292.561ZM1977.39 314.541C1977.39 305.335 1979.35 298.184 1982.64 292.478L1951.45 274.504C1944.53 286.498 1941.39 300.047 1941.39 314.541H1977.39ZM1982.7 336.717C1979.33 330.762 1977.39 323.545 1977.39 314.541H1941.39C1941.39 328.937 1944.55 342.42 1951.38 354.465L1982.7 336.717ZM1997.64 350.9C1991.01 347.321 1986.12 342.574 1982.59 336.521L1951.49 354.661C1958.46 366.608 1968.27 375.961 1980.54 382.581L1997.64 350.9ZM1986.06 276.971C1980.92 283.4 1977.94 291.014 1976.38 298.91L2011.7 305.872C2012.44 302.124 2013.51 300.288 2014.17 299.46L1986.06 276.971ZM2020.82 261.216C2007.42 261.216 1995.1 266.015 1986.23 276.761L2014 299.671C2015.03 298.417 2016.51 297.216 2020.82 297.216V261.216ZM2051.76 273.456C2043.29 264.692 2032.19 261.216 2020.82 261.216V297.216C2024.75 297.216 2025.65 298.24 2025.87 298.476L2051.76 273.456ZM2063.35 300.963C2062.56 290.96 2059.3 280.734 2051.33 273.024L2026.31 298.908C2025.97 298.582 2027.11 299.306 2027.47 303.819L2063.35 300.963ZM1994.04 320.391H2045.41V284.391H1994.04V320.391Z" fill="#171D24" mask="url(#path-16-outside-2_18_38)"/>
<defs>
<filter id="filter0_d_18_38" x="138.711" y="133.71" width="320.883" height="322.553" filterUnits="userSpaceOnUse" color-interpolation-filters="sRGB">
<feFlood flood-opacity="0" result="BackgroundImageFix"/>
<feColorMatrix in="SourceAlpha" type="matrix" values="0 0 0 0 0 0 0 0 0 0 0 0 0 0 0 0 0 0 127 0" result="hardAlpha"/>
<feOffset dy="4"/>
<feGaussianBlur stdDeviation="2"/>
<feComposite in2="hardAlpha" operator="out"/>
<feColorMatrix type="matrix" values="0 0 0 0 0 0 0 0 0 0 0 0 0 0 0 0 0 0 0.25 0"/>
<feBlend mode="normal" in2="BackgroundImageFix" result="effect1_dropShadow_18_38"/>
<feBlend mode="normal" in="SourceGraphic" in2="effect1_dropShadow_18_38" result="shape"/>
</filter>
<linearGradient id="paint0_linear_18_38" x1="493.4" y1="292.699" x2="2020" y2="292.699" gradientUnits="userSpaceOnUse">
<stop stop-color="#1C394E"/>
<stop offset="1" stop-color="#4084B4"/>
</linearGradient>
<linearGradient id="paint1_linear_18_38" x1="299.153" y1="0" x2="299.153" y2="585.316" gradientUnits="userSpaceOnUse">
<stop stop-color="#437E9C"/>
<stop offset="1" stop-color="#A1DAF4"/>
</linearGradient>
<linearGradient id="paint2_linear_18_38" x1="298.653" y1="18.0499" x2="298.653" y2="568.936" gradientUnits="userSpaceOnUse">
<stop stop-color="#458FC3"/>
<stop offset="0.541" stop-color="#21445D"/>
</linearGradient>
<linearGradient id="paint3_linear_18_38" x1="499.716" y1="293.495" x2="98.5849" y2="293.495" gradientUnits="userSpaceOnUse">
<stop stop-color="#9EA0A5"/>
<stop offset="1" stop-color="#3C3D3F"/>
</linearGradient>
<linearGradient id="paint4_linear_18_38" x1="299.157" y1="108.973" x2="299.157" y2="476.675" gradientUnits="userSpaceOnUse">
<stop stop-color="#1B2125"/>
<stop offset="1" stop-color="#657C8B"/>
</linearGradient>
<linearGradient id="paint5_linear_18_38" x1="301.161" y1="174.492" x2="301.161" y2="408.486" gradientUnits="userSpaceOnUse">
<stop stop-color="#192022"/>
<stop offset="1" stop-color="#648088"/>
</linearGradient>
<linearGradient id="paint6_linear_18_38" x1="300.488" y1="188.53" x2="300.488" y2="395.112" gradientUnits="userSpaceOnUse">
<stop stop-color="#9BA6B2"/>
<stop offset="1" stop-color="#42474C"/>
</linearGradient>
<radialGradient id="paint7_radial_18_38" cx="0" cy="0" r="1" gradientUnits="userSpaceOnUse" gradientTransform="translate(640.874 311.416) scale(1438.67 167.324)">
<stop offset="0.426" stop-color="#4084B4"/>
<stop offset="1" stop-color="#37719B"/>
</radialGradient>
</defs>
</svg>
